<?xml version="1.0" encoding="utf-8"?>
<!-- Generator: Adobe Illustrator 25.2.1, SVG Export Plug-In . SVG Version: 6.00 Build 0)  -->
<svg version="1.1" id="Layer_1" xmlns="http://www.w3.org/2000/svg" xmlns:xlink="http://www.w3.org/1999/xlink" x="0px" y="0px"
	 viewBox="0 0 100 100" style="enable-background:new 0 0 100 100;" xml:space="preserve">
<style type="text/css">
	.st0{fill:#010101;}
</style>
<g>
	<path class="st0" d="M60.9,61.1H40.5v-6h5c0.9,0,1.7,0,2.4,0.1l7,0.7c-2.4-0.5-4.1-1.2-5.2-2c-1.5-1.1-2.2-2.7-2.2-4.8
		c0-2.3,0.5-4.6,1.6-6.9c1.3-2.9,2.9-4.3,4.9-4.3c2.4,0,4.3,2.3,5.6,6.8c0.9,3.2,1.4,6.4,1.4,9.7V61.1z M52.8,76.3h-5.1V64h5.1V76.3
		z M58.2,29.7l-3.3,6.2l-6.5-3.4l3.4-6.3L58.2,29.7z M57.1,51.1c-1.4-3.4-3-5-4.7-5c-0.9,0-1.4,0.4-1.4,1.2c0,0.8,0.6,1.5,1.8,2.3
		C54.1,50.4,55.5,50.9,57.1,51.1z"/>
</g>
</svg>
