<?xml version="1.0" encoding="utf-8"?>
<!-- Generator: Adobe Illustrator 25.2.1, SVG Export Plug-In . SVG Version: 6.00 Build 0)  -->
<svg version="1.1" id="Layer_1" xmlns="http://www.w3.org/2000/svg" xmlns:xlink="http://www.w3.org/1999/xlink" x="0px" y="0px"
	 viewBox="0 0 100 100" style="enable-background:new 0 0 100 100;" xml:space="preserve">
<style type="text/css">
	.st0{fill:#010101;}
</style>
<g>
	<path class="st0" d="M43.6,69.1l-11.7,7.2c-7.2,0-12.5-1.4-15.8-4.1c-3.5-2.8-5.2-7.3-5.2-13.3c0-4.2,0.8-7.9,2.5-11
		c1.7-3.2,4.3-6.1,7.9-8.6c-2.4,0-4.5,0.4-6.3,1.1c-0.7,0.3-2.2,0.9-4.5,2C11.3,34.8,14.9,31,21,31c0.9,0,2.4,0.1,4.6,0.3
		c2.1,0.2,4,0.4,5.6,0.5c3.1,0.2,6.1,0.3,9.1,0.3l-1.8,7.4c-7.7,1-13.6,2.8-17.7,5.6c-4.1,2.8-6.1,6.3-6.1,10.6c0,4,1.7,7.1,5,9.3
		c3.3,2.1,8.1,3.2,14.4,3.2c0.2,0,1.7-0.1,4.6-0.3c1.6-0.1,3-0.2,4.3-0.2L43.6,69.1z M34,53l-3.6,7L23.3,56l3.7-6.9L34,53z"/>
	<path class="st0" d="M53,63.7v-8.5h8.5v8.5H53z"/>
	<path class="st0" d="M91.1,54.8H77.4c-1.3,0-2.3-0.3-3.1-0.8c-0.9-0.7-1.3-1.8-1.3-3.4c0-0.9,0-1.8,0.1-2.9c0.1-1,0.2-2.1,0.4-3.1
		l1.1-0.1c0.2,0.7,0.5,1.2,1.1,1.5c0.6,0.3,1.2,0.5,2,0.5h10.4c-0.5-3-1.3-5.3-2.4-7.1c-0.9-1.5-2.3-2.7-4-3.8l2.2-9.4
		c2.6,2,4.5,4.5,5.6,7.6c1,2.8,1.5,6.6,1.5,11.3V54.8z"/>
</g>
</svg>
