<?xml version="1.0" encoding="utf-8"?>
<!-- Generator: Adobe Illustrator 25.2.1, SVG Export Plug-In . SVG Version: 6.00 Build 0)  -->
<svg version="1.1" id="Layer_1" xmlns="http://www.w3.org/2000/svg" xmlns:xlink="http://www.w3.org/1999/xlink" x="0px" y="0px"
	 viewBox="0 0 100 100" style="enable-background:new 0 0 100 100;" xml:space="preserve">
<style type="text/css">
	.st0{fill:#010101;}
</style>
<g>
	<g>
		<path class="st0" d="M47.1,61.7h12.3v-3.4H47.1v-4.3h12.3v-9.4c0-4.5-1-7.7-2.9-9.8c-1.9-2.1-5-3.2-9.1-3.2c-4.2,0-7.2,1-9.1,3.2
			c-1.9,2.1-2.9,5.4-2.9,9.8v4.1h-6.1v-3.8c0-6.1,1.5-10.7,4.6-13.9c3.1-3.2,7.6-4.7,13.4-4.7c5.8,0,10.3,1.6,13.4,4.7
			c3.1,3.1,4.7,7.8,4.7,13.9v9.1h6.7v4.3h-6.7v3.4h6.7V66h-6.7v10.3h-6.1V66H47.1V61.7z"/>
	</g>
</g>
</svg>
