<?xml version="1.0" encoding="utf-8"?>
<!-- Generator: Adobe Illustrator 25.2.1, SVG Export Plug-In . SVG Version: 6.00 Build 0)  -->
<svg version="1.1" id="Layer_1" xmlns="http://www.w3.org/2000/svg" xmlns:xlink="http://www.w3.org/1999/xlink" x="0px" y="0px"
	 viewBox="0 0 100 100" style="enable-background:new 0 0 100 100;" xml:space="preserve">
<style type="text/css">
	.st0{fill:#010101;}
</style>
<g>
	<path class="st0" d="M43.3,42.9l0.9-5.5h5.3l0.4-2.3c0.5-2.7,0.9-4.4,1.2-5.1c0.6-1.1,1.3-2,2.3-2.6c1.3-0.8,3.1-1.1,5.4-1.1
		c2.3,0,4.7,0.4,6.9,1.1l-1.4,5.9c-1.6-0.5-3-0.7-4.1-0.7c-0.9,0-1.6,0.2-2.1,0.6c-0.5,0.4-0.8,1.4-1.1,2.9l-0.3,1.5h5.4l-1,5.5
		h-5.3l-4.5,25.4c-0.3,2.1-0.8,3.6-1.4,4.6c-0.6,1-1.4,1.8-2.5,2.4c-1.1,0.6-2.7,0.9-4.7,0.9c-2.7,0-5.1-0.3-7.3-1l1.5-5.7
		c1.9,0.4,3.3,0.6,4.3,0.6c1.1,0,1.8-0.3,2.3-1c0.3-0.5,0.7-1.7,1-3.5l3.9-22.7H43.3z"/>
</g>
</svg>
