<?xml version="1.0" encoding="utf-8"?>
<!-- Generator: Adobe Illustrator 25.2.1, SVG Export Plug-In . SVG Version: 6.00 Build 0)  -->
<svg version="1.1" id="Layer_1" xmlns="http://www.w3.org/2000/svg" xmlns:xlink="http://www.w3.org/1999/xlink" x="0px" y="0px"
	 viewBox="0 0 100 100" style="enable-background:new 0 0 100 100;" xml:space="preserve">
<style type="text/css">
	.st0{fill:#010101;}
</style>
<g>
	<g>
		<path class="st0" d="M73.1,76.3c0-2-0.2-3.1-0.5-5.6c-0.3-2.5-0.8-5.1-1.5-7.7c-0.7-2.6-1.5-5.2-2.5-7.7c-1-2.5-2.2-4.9-3.6-7.1
			c-1.4-2.2-3-4-4.7-5.6c-1.8-1.6-3.8-2.7-5.9-3.4v37.1h-7.5V39.1c-2.2,0.7-4.2,1.8-5.9,3.4c-1.8,1.6-3.4,3.5-4.7,5.6
			c-1.4,2.2-2.6,4.5-3.6,7.1c-1,2.5-1.8,5.1-2.5,7.7c-0.7,2.6-1.2,5.2-1.5,7.7c-0.3,2.5-0.5,3.6-0.5,5.6h-7.7c0-2.8,0.2-4.7,0.6-7.8
			c0.4-3.2,1-6.3,1.9-9.4c0.9-3.1,2-6.1,3.3-9.1c1.4-2.9,3-5.6,5-7.9c1.9-2.4,4.2-4.4,6.8-6c2.6-1.6,5.5-2.7,8.8-3.2v-6.6h7.5v6.6
			c3.3,0.5,6.2,1.6,8.8,3.2c2.6,1.6,4.9,3.6,6.8,6c1.9,2.4,3.6,5,5,7.9c1.4,2.9,2.5,5.9,3.3,9.1c0.9,3.1,1.5,6.3,1.9,9.4
			c0.4,3.2,0.6,5,0.6,7.8H73.1z"/>
	</g>
</g>
</svg>
