<?xml version="1.0" encoding="utf-8"?>
<!-- Generator: Adobe Illustrator 25.2.1, SVG Export Plug-In . SVG Version: 6.00 Build 0)  -->
<svg version="1.1" id="Layer_1" xmlns="http://www.w3.org/2000/svg" xmlns:xlink="http://www.w3.org/1999/xlink" x="0px" y="0px"
	 viewBox="0 0 100 100" style="enable-background:new 0 0 100 100;" xml:space="preserve">
<style type="text/css">
	.st0{fill:#010101;}
</style>
<g>
	<path class="st0" d="M111.4,68.3H91.7c-1.9,0-3.4-0.4-4.4-1.2c-1.3-1-1.9-2.6-1.9-4.9c0-1.3,0.1-2.7,0.2-4.2c0.1-1.5,0.3-3,0.6-4.5
		l1.7-0.1c0.2,1,0.7,1.8,1.6,2.2c0.8,0.5,1.8,0.7,2.9,0.7h15c-0.7-4.3-1.8-7.7-3.5-10.3c-1.4-2.1-3.3-4-5.7-5.5l3.1-13.6
		c3.8,2.8,6.5,6.5,8,10.9c1.5,4.1,2.2,9.6,2.2,16.3V68.3z"/>
	<path class="st0" d="M-11.4,68.8V56.5H0.8v12.3H-11.4z"/>
	<path class="st0" d="M62.9,56H26.2c-3.5,0-5.9-0.1-7-0.2c-1.2-0.1-2.4-0.4-3.7-0.9c-2.4-0.8-4.4-2.5-5.9-5
		c-1.5-2.5-2.3-5.3-2.3-8.4c0-1.2,0.1-2.3,0.2-3.2c0.1-0.9,0.3-2.1,0.7-3.3c0.5-1.9,1-3.5,1.7-4.8c0.6-1.3,1.7-3,3.2-5.2l2.4,1.7
		c-1.3,2.3-2.1,4.1-2.6,5.5c-0.5,1.3-0.7,2.7-0.7,4c0,1.7,0.5,3.2,1.6,4.5c1.1,1.3,2.5,2.2,4.2,2.6c1,0.3,2.4,0.5,4,0.6
		c1.6,0.1,3.4,0.2,5.2,0.2h31.6c-0.8-2.2-1.5-3.8-2-4.7c-0.6-1.1-1.6-2.5-3-4.2L57.7,25c2.2,3.1,3.6,6,4.3,8.6
		c0.6,2.3,0.9,5.6,0.9,10.1V56z M45.8,65.2L40.6,75l-10.1-5.5l5.2-10L45.8,65.2z"/>
	<path class="st0" d="M65.7,68.3V56H78v12.3H65.7z"/>
</g>
</svg>
