<?xml version="1.0" encoding="utf-8"?>
<!-- Generator: Adobe Illustrator 25.2.1, SVG Export Plug-In . SVG Version: 6.00 Build 0)  -->
<svg version="1.1" id="Layer_1" xmlns="http://www.w3.org/2000/svg" xmlns:xlink="http://www.w3.org/1999/xlink" x="0px" y="0px"
	 viewBox="0 0 100 100" style="enable-background:new 0 0 100 100;" xml:space="preserve">
<style type="text/css">
	.st0{fill:#010101;}
</style>
<g>
	<g>
		<path class="st0" d="M41.7,62.8V42h-7.8v-3.3h7.8v-2c0-1.8-0.4-3-1.1-3.7c-0.6-0.6-1.6-0.9-3-0.9c-0.5,0-1.6,0.1-3.4,0.4l-0.9-5.6
			c2.5-0.3,4.4-0.5,5.8-0.5c3.7,0,6.3,0.9,8,2.7c1.5,1.6,2.2,4,2.2,7.2v2.5H63V42H49.3v20.3c0,5.4,1.7,8.2,5.1,8.2
			c3.9,0,5.8-3.3,5.8-9.9c0-6.1-2.5-9.4-7.4-9.8l2-5.6c4,0.2,7.3,1.9,9.7,4.8c2.3,2.8,3.4,6.2,3.4,10.5c0,5.4-1.4,9.5-4.3,12.3
			c-2.4,2.4-5.5,3.6-9.4,3.6c-4.2,0-7.5-1.3-9.7-3.9C42.7,70.1,41.7,66.9,41.7,62.8z"/>
	</g>
</g>
</svg>
