<?xml version="1.0" encoding="utf-8"?>
<!-- Generator: Adobe Illustrator 25.2.1, SVG Export Plug-In . SVG Version: 6.00 Build 0)  -->
<svg version="1.1" id="Layer_1" xmlns="http://www.w3.org/2000/svg" xmlns:xlink="http://www.w3.org/1999/xlink" x="0px" y="0px"
	 viewBox="0 0 100 100" style="enable-background:new 0 0 100 100;" xml:space="preserve">
<style type="text/css">
	.st0{fill:#010101;}
</style>
<g>
	<path class="st0" d="M14.9,26.3h20c4,0,6.9,0.2,8.9,0.5c1.9,0.3,3.7,1,5.2,2.1c1.5,1,2.8,2.4,3.8,4.2c1,1.7,1.5,3.7,1.5,5.8
		c0,2.3-0.6,4.5-1.9,6.4c-1.3,2-3,3.4-5.1,4.4c3,0.9,5.4,2.4,7,4.5c1.6,2.1,2.5,4.6,2.5,7.5c0,2.3-0.5,4.5-1.6,6.6
		c-1.1,2.1-2.5,3.9-4.3,5.2c-1.8,1.3-4.1,2.1-6.8,2.4c-1.7,0.2-5.7,0.3-12.2,0.3h-17V26.3z M25,34.6v11.6h6.6c3.9,0,6.4-0.1,7.3-0.2
		c1.7-0.2,3.1-0.8,4.1-1.8c1-1,1.5-2.3,1.5-3.9c0-1.5-0.4-2.8-1.3-3.8c-0.9-1-2.1-1.6-3.8-1.8c-1-0.1-3.9-0.2-8.6-0.2H25z M25,54.5
		v13.4h9.3c3.6,0,5.9-0.1,6.9-0.3c1.5-0.3,2.7-0.9,3.7-2c0.9-1.1,1.4-2.5,1.4-4.2c0-1.5-0.4-2.8-1.1-3.8c-0.7-1-1.8-1.8-3.2-2.3
		c-1.4-0.5-4.4-0.7-9-0.7H25z"/>
	<path class="st0" d="M72.6,76.3h-9.6V40H72v5.2c1.5-2.4,2.9-4,4.1-4.8c1.2-0.8,2.6-1.2,4.1-1.2c2.2,0,4.3,0.6,6.3,1.8l-3,8.4
		c-1.6-1-3.1-1.6-4.5-1.6c-1.3,0-2.5,0.4-3.4,1.1c-0.9,0.7-1.7,2.1-2.2,4c-0.5,1.9-0.8,6-0.8,12.1V76.3z"/>
</g>
</svg>
