<?xml version="1.0" encoding="utf-8"?>
<!-- Generator: Adobe Illustrator 25.2.1, SVG Export Plug-In . SVG Version: 6.00 Build 0)  -->
<svg version="1.1" id="Layer_1" xmlns="http://www.w3.org/2000/svg" xmlns:xlink="http://www.w3.org/1999/xlink" x="0px" y="0px"
	 viewBox="0 0 100 100" style="enable-background:new 0 0 100 100;" xml:space="preserve">
<style type="text/css">
	.st0{fill:#010101;}
</style>
<g>
	<path class="st0" d="M12.9,75V25h9.8l20.5,33.4V25h9.4v50H42.4L22.3,42.4V75H12.9z"/>
	<g>
		<path class="st0" d="M54.3,42.8h6.4v17.1c0,2.7,0.1,4.5,0.2,5.3c0.3,1.3,0.9,2.3,1.9,3.1c1,0.8,2.4,1.2,4.2,1.2
			c1.8,0,3.2-0.4,4.1-1.1c0.9-0.7,1.5-1.6,1.7-2.7c0.2-1.1,0.3-2.9,0.3-5.4V42.8h6.4v16.6c0,3.8-0.2,6.5-0.5,8c-0.3,1.6-1,2.9-1.9,4
			c-0.9,1.1-2.2,1.9-3.7,2.6c-1.6,0.6-3.6,1-6.1,1c-3,0-5.3-0.3-6.9-1c-1.6-0.7-2.8-1.6-3.7-2.7c-0.9-1.1-1.5-2.3-1.8-3.5
			c-0.4-1.8-0.6-4.5-0.6-8V42.8z"/>
	</g>
	<path class="st0" d="M81.1,74.9v-6h6v6H81.1z"/>
</g>
</svg>
