<?xml version="1.0" encoding="utf-8"?>
<!-- Generator: Adobe Illustrator 25.2.1, SVG Export Plug-In . SVG Version: 6.00 Build 0)  -->
<svg version="1.1" id="Layer_1" xmlns="http://www.w3.org/2000/svg" xmlns:xlink="http://www.w3.org/1999/xlink" x="0px" y="0px"
	 viewBox="0 0 100 100" style="enable-background:new 0 0 100 100;" xml:space="preserve">
<style type="text/css">
	.st0{fill:#010101;}
</style>
<path class="st0" d="M61.4,48.7c3.1-1.7,4.7-4.3,4.7-7.8c0-5.3-3-9.1-9.8-9.9V25h-6.2v5.7c-1,0-1.4,0-4.7,0V25h-6.2v5.6h-6.6v38.7
	h6.6V75h6.2v-5.6c4.8,0,4.5,0,4.7,0V75h6.2v-5.9c7.3-0.7,11.1-5,11.1-11.4C67.4,53.1,65.5,50.2,61.4,48.7z M54.5,42.8
	c0,4-3.6,3.3-9.8,3.3v-6.7C51.6,39.4,54.5,39,54.5,42.8z M44.7,60.3v-7.1c6.9,0,11-0.7,11,3.5C55.7,61.1,51.4,60.3,44.7,60.3z"/>
</svg>
