<?xml version="1.0" encoding="utf-8"?>
<!-- Generator: Adobe Illustrator 25.2.1, SVG Export Plug-In . SVG Version: 6.00 Build 0)  -->
<svg version="1.1" id="Layer_1" xmlns="http://www.w3.org/2000/svg" xmlns:xlink="http://www.w3.org/1999/xlink" x="0px" y="0px"
	 viewBox="0 0 100 100" style="enable-background:new 0 0 100 100;" xml:space="preserve">
<style type="text/css">
	.st0{fill:#010101;}
</style>
<g>
	<g>
		<path class="st0" d="M31.8,64.5V52.8c-3.7-1-6.3-2.6-8-4.7c-1.7-2.1-2.6-4.7-2.6-7.7c0-3.1,1-5.6,2.9-7.7c1.9-2.1,4.5-3.3,7.7-3.6
			v-2.8h4.1V29c3,0.4,5.3,1.4,7.1,3c1.8,1.7,2.9,3.9,3.4,6.7l-7.1,0.9c-0.4-2.2-1.5-3.7-3.4-4.5v10.9c4.5,1.2,7.5,2.8,9.1,4.7
			c1.6,1.9,2.4,4.4,2.4,7.4c0,3.4-1,6.2-3.1,8.5c-2,2.3-4.9,3.7-8.5,4.2v5.2h-4.1v-5.1c-3.2-0.4-5.8-1.6-7.9-3.6
			c-2-2-3.3-4.9-3.9-8.5l7.3-0.8c0.3,1.5,0.9,2.8,1.7,3.9C29.9,63.2,30.8,64,31.8,64.5z M31.8,35.1c-1.1,0.4-2,1-2.6,1.9
			c-0.7,0.9-1,1.9-1,3c0,1,0.3,1.9,0.9,2.8c0.6,0.8,1.5,1.5,2.7,2.1V35.1z M35.9,64.9c1.4-0.3,2.5-0.9,3.4-1.9
			c0.9-1,1.3-2.2,1.3-3.6c0-1.2-0.4-2.3-1.1-3.2c-0.7-0.9-1.9-1.6-3.6-2.1V64.9z"/>
		<path class="st0" d="M52.3,70.5v-41h7.9v14.8c2.4-2.8,5.3-4.1,8.6-4.1c3.6,0,6.6,1.3,9,3.9c2.4,2.6,3.5,6.4,3.5,11.3
			c0,5.1-1.2,9-3.6,11.7c-2.4,2.7-5.3,4.1-8.8,4.1c-1.7,0-3.4-0.4-5-1.3c-1.6-0.8-3.1-2.1-4.3-3.8v4.4H52.3z M60.1,55
			c0,3.1,0.5,5.3,1.5,6.8C62.9,64,64.7,65,67,65c1.7,0,3.2-0.7,4.4-2.2c1.2-1.5,1.8-3.8,1.8-7c0-3.4-0.6-5.8-1.8-7.3
			c-1.2-1.5-2.8-2.2-4.7-2.2c-1.9,0-3.4,0.7-4.7,2.2C60.7,49.8,60.1,52.1,60.1,55z"/>
	</g>
</g>
</svg>
