<?xml version="1.0" encoding="utf-8"?>
<!-- Generator: Adobe Illustrator 25.2.1, SVG Export Plug-In . SVG Version: 6.00 Build 0)  -->
<svg version="1.1" id="Layer_1" xmlns="http://www.w3.org/2000/svg" xmlns:xlink="http://www.w3.org/1999/xlink" x="0px" y="0px"
	 viewBox="0 0 100 100" style="enable-background:new 0 0 100 100;" xml:space="preserve">
<style type="text/css">
	.st0{fill:#010101;}
</style>
<g>
	<path class="st0" d="M5.9,25.3h10v21.1c2.2-0.2,3.7-0.8,4.5-1.7c0.8-0.9,2-3.5,3.7-7.7c2.1-5.4,4.2-8.7,6.3-10
		c2.1-1.3,5.4-2,10.1-2c0.2,0,0.7,0,1.5,0v7.4l-1.4,0c-2.1,0-3.6,0.3-4.5,0.8c-0.9,0.5-1.7,1.3-2.3,2.3c-0.6,1-1.5,3.2-2.6,6.4
		c-0.6,1.7-1.3,3.2-2,4.3c-0.7,1.2-2,2.2-3.8,3.3c2.2,0.6,4.1,1.9,5.5,3.8c1.5,1.9,3.1,4.6,4.8,8.1L42.4,75H30.6l-5.9-12.8
		c-0.1-0.2-0.3-0.5-0.6-1.1c-0.1-0.2-0.5-1-1.3-2.3c-1.3-2.4-2.3-4-3.2-4.6c-0.8-0.6-2.1-0.9-3.8-0.9V75h-10V25.3z"/>
	<path class="st0" d="M46.2,75V25.3h15l9,33.9l8.9-33.9h15V75h-9.3V35.9L75,75h-9.7l-9.8-39.1V75H46.2z"/>
</g>
</svg>
