<?xml version="1.0" encoding="utf-8"?>
<!-- Generator: Adobe Illustrator 25.2.1, SVG Export Plug-In . SVG Version: 6.00 Build 0)  -->
<svg version="1.1" id="Layer_1" xmlns="http://www.w3.org/2000/svg" xmlns:xlink="http://www.w3.org/1999/xlink" x="0px" y="0px"
	 viewBox="0 0 100 100" style="enable-background:new 0 0 100 100;" xml:space="preserve">
<style type="text/css">
	.st0{fill:#010101;}
</style>
<g>
	<path class="st0" d="M-1.4,75V25h34.3v8.5H8.7v11.8h20.9v8.5H8.7V75H-1.4z"/>
	<path class="st0" d="M33.5,25h20c4,0,6.9,0.2,8.9,0.5c1.9,0.3,3.7,1,5.2,2.1c1.5,1,2.8,2.4,3.8,4.2c1,1.7,1.5,3.7,1.5,5.8
		c0,2.3-0.6,4.5-1.9,6.4c-1.3,2-3,3.4-5.1,4.4c3,0.9,5.4,2.4,7,4.5c1.6,2.1,2.5,4.7,2.5,7.5c0,2.3-0.5,4.5-1.6,6.6
		c-1.1,2.1-2.5,3.9-4.3,5.2c-1.8,1.3-4.1,2.1-6.8,2.4C61,74.8,57,75,50.5,75h-17V25z M43.6,33.3v11.6h6.6c3.9,0,6.4-0.1,7.3-0.2
		c1.7-0.2,3.1-0.8,4.1-1.8c1-1,1.5-2.3,1.5-3.9c0-1.5-0.4-2.8-1.3-3.8c-0.9-1-2.1-1.6-3.8-1.8c-1-0.1-3.9-0.2-8.6-0.2H43.6z
		 M43.6,53.2v13.4h9.3c3.6,0,5.9-0.1,6.9-0.3c1.5-0.3,2.7-0.9,3.7-2c0.9-1.1,1.4-2.5,1.4-4.2c0-1.5-0.4-2.8-1.1-3.8
		c-0.7-1-1.8-1.8-3.2-2.3c-1.4-0.5-4.4-0.7-9-0.7H43.6z"/>
	<g>
		<path class="st0" d="M78.6,45.3h5.8v15.5c0,2.5,0.1,4.1,0.2,4.8c0.2,1.2,0.8,2.1,1.8,2.8c0.9,0.7,2.2,1.1,3.8,1.1
			c1.6,0,2.9-0.3,3.7-1c0.8-0.7,1.3-1.5,1.5-2.5c0.2-1,0.3-2.6,0.3-4.9V45.3h5.8v15.1c0,3.4-0.2,5.9-0.5,7.3
			c-0.3,1.4-0.9,2.6-1.7,3.6c-0.8,1-2,1.8-3.4,2.3c-1.4,0.6-3.2,0.9-5.5,0.9c-2.7,0-4.8-0.3-6.2-0.9c-1.4-0.6-2.5-1.5-3.4-2.5
			c-0.8-1-1.4-2.1-1.6-3.2c-0.4-1.6-0.6-4.1-0.6-7.3V45.3z"/>
	</g>
</g>
</svg>
