<?xml version="1.0" encoding="utf-8"?>
<!-- Generator: Adobe Illustrator 25.2.1, SVG Export Plug-In . SVG Version: 6.00 Build 0)  -->
<svg version="1.1" id="Layer_1" xmlns="http://www.w3.org/2000/svg" xmlns:xlink="http://www.w3.org/1999/xlink" x="0px" y="0px"
	 viewBox="0 0 100 100" style="enable-background:new 0 0 100 100;" xml:space="preserve">
<style type="text/css">
	.st0{fill:#010101;}
</style>
<g>
	<g>
		<path class="st0" d="M63.7,30.1l-2.3,3c-3.1-2.2-6.3-3.3-9.7-3.3c-2.4,0-4.6,0.6-6.5,1.7c-1.6,1-2.4,2-2.4,3
			c0,0.6,0.2,1.1,0.6,1.4c0.4,0.3,1,0.6,2,0.9l10.2,3.1v6.8h10.4v3.4H55.5V75h-6.3c-5.2-1.5-9.2-3.5-11.8-6.2
			c-2.2-2.2-3.3-4.6-3.3-7.2c0-2.6,1-4.6,3.1-6.2c1.7-1.3,3.7-2,6-2c1.4,0,2.8,0.4,4.1,1.2L47,56.5c-4,0.5-6.1,2.2-6.1,5.1
			c0,1.6,0.8,3.1,2.4,4.6c1.5,1.4,3.4,2.5,5.6,3.1V50.1H37.4v-3.4h11.5v-2.6L39.4,41c-1.7-0.6-2.8-1.3-3.4-2.3
			c-0.6-0.9-0.8-2.1-0.8-3.7c0-2.9,1.8-5.3,5.3-7.3c3.2-1.8,6.9-2.7,11.3-2.7C56.2,25,60.2,26.7,63.7,30.1z"/>
	</g>
</g>
</svg>
