<?xml version="1.0" encoding="utf-8"?>
<!-- Generator: Adobe Illustrator 25.2.1, SVG Export Plug-In . SVG Version: 6.00 Build 0)  -->
<svg version="1.1" id="Layer_1" xmlns="http://www.w3.org/2000/svg" xmlns:xlink="http://www.w3.org/1999/xlink" x="0px" y="0px"
	 viewBox="0 0 100 100" style="enable-background:new 0 0 100 100;" xml:space="preserve">
<style type="text/css">
	.st0{fill:#010101;}
	.st1{fill:#020202;}
</style>
<g>
	<g>
		<path class="st0" d="M725.5,690.6H776c10,0,17.4,0.4,22.4,1.2c4.9,0.8,9.3,2.6,13.2,5.2c3.9,2.6,7.1,6.2,9.7,10.6
			c2.6,4.4,3.9,9.3,3.9,14.8c0,5.9-1.6,11.3-4.8,16.3c-3.2,4.9-7.5,8.6-13,11.1c7.7,2.2,13.6,6.1,17.7,11.5c4.1,5.4,6.2,11.7,6.2,19
			c0,5.7-1.3,11.3-4,16.8c-2.7,5.4-6.3,9.8-10.9,13c-4.6,3.2-10.3,5.2-17.1,6c-4.2,0.5-14.5,0.7-30.8,0.9h-43V690.6z M751,711.6
			v29.2h16.7c9.9,0,16.1-0.1,18.5-0.4c4.4-0.5,7.8-2,10.3-4.5c2.5-2.5,3.7-5.8,3.7-9.9c0-3.9-1.1-7.1-3.2-9.5
			c-2.2-2.4-5.4-3.9-9.6-4.4c-2.5-0.3-9.8-0.4-21.8-0.4H751z M751,761.9v33.8h23.6c9.2,0,15-0.3,17.5-0.8c3.8-0.7,6.9-2.4,9.3-5
			c2.4-2.7,3.6-6.2,3.6-10.7c0-3.8-0.9-7-2.8-9.6c-1.8-2.6-4.5-4.6-8-5.8c-3.5-1.2-11-1.8-22.6-1.8H751z"/>
		<path class="st0" d="M835.3,819.1l31.3-130.6h18.2l-31.6,130.6H835.3z"/>
		<path class="st0" d="M892.9,816.9v-24.2h24.2v24.2H892.9z"/>
	</g>
</g>
<g>
	<path class="st1" d="M-29.8,75V25H4.5v8.5h-24.2v11.8H1.2v8.5h-20.9V75H-29.8z"/>
	<path class="st1" d="M37.1,56.4l9.5,3c-1.5,5.3-3.9,9.2-7.2,11.8C36,73.7,31.7,75,26.5,75c-6.4,0-11.7-2.2-15.8-6.6
		S4.5,58,4.5,50.4c0-8,2.1-14.3,6.2-18.7c4.2-4.5,9.6-6.7,16.4-6.7c5.9,0,10.7,1.7,14.4,5.2c2.2,2.1,3.8,5,4.9,8.9l-9.7,2.3
		c-0.6-2.5-1.8-4.5-3.6-5.9c-1.8-1.5-4-2.2-6.6-2.2c-3.6,0-6.5,1.3-8.7,3.9c-2.2,2.6-3.3,6.7-3.3,12.5c0,6.1,1.1,10.5,3.3,13.1
		s5.1,3.9,8.6,3.9c2.6,0,4.8-0.8,6.7-2.5C35,62.5,36.3,59.9,37.1,56.4z"/>
	<path class="st1" d="M129.8,75h-11l-4.4-11.4h-20L90.3,75H79.6l19.5-50h10.7L129.8,75z M111.2,55.2l-6.9-18.6l-6.8,18.6
		C97.5,55.2,111.2,55.2,111.2,55.2z"/>
	<path class="st1" d="M49.7,75V25H84v8.5H59.8v11.8h20.9v8.5H59.8V75H49.7z"/>
</g>
</svg>
