<?xml version="1.0" encoding="utf-8"?>
<!-- Generator: Adobe Illustrator 25.2.1, SVG Export Plug-In . SVG Version: 6.00 Build 0)  -->
<svg version="1.1" id="Layer_1" xmlns="http://www.w3.org/2000/svg" xmlns:xlink="http://www.w3.org/1999/xlink" x="0px" y="0px"
	 viewBox="0 0 100 100" style="enable-background:new 0 0 100 100;" xml:space="preserve">
<style type="text/css">
	.st0{fill:#010101;}
</style>
<g>
	<path class="st0" d="M69.7,59.6c-2.5,9.1-8.3,13.8-17.4,14.1l-0.6,2.6h-6.2l0.8-3.2c-0.8-0.2-1.7-0.5-2.6-0.9l-1,4h-6.2l1.8-7.4
		c-4.5-4.1-6.7-9.8-6.7-17.3c0-7.3,1.9-12.9,5.6-16.9c2.9-3.1,6.5-5,10.8-5.7l0.6-2.6h6.2l-0.6,2.4c0.8,0.1,1.7,0.2,2.7,0.4l0.7-2.8
		h6.2l-1.2,5.1c3.3,2.1,5.6,5.5,6.9,10l-8.7,2.1c-0.2-0.7-0.4-1.4-0.7-2l-5.9,24.4c3.5-1.1,5.8-4,6.9-8.9L69.7,59.6z M45.9,37.7
		c-0.8,0.5-1.5,1.1-2.1,1.9c-2,2.3-3,6.1-3,11.3c0,2.3,0.2,4.3,0.5,6L45.9,37.7z M55.1,36.6c-0.8-0.3-1.7-0.5-2.6-0.5l-6.9,28.3
		c0.8,0.6,1.6,1,2.5,1.3L55.1,36.6z"/>
</g>
</svg>
