<?xml version="1.0" encoding="utf-8"?>
<!-- Generator: Adobe Illustrator 25.2.1, SVG Export Plug-In . SVG Version: 6.00 Build 0)  -->
<svg version="1.1" id="Layer_1" xmlns="http://www.w3.org/2000/svg" xmlns:xlink="http://www.w3.org/1999/xlink" x="0px" y="0px"
	 viewBox="0 0 100 100" style="enable-background:new 0 0 100 100;" xml:space="preserve">
<style type="text/css">
	.st0{fill:#010101;}
</style>
<g>
	<path class="st0" d="M13.7,75V28.6h31.8v7.8H23v11h19.4v7.8H23V75H13.7z"/>
	<path class="st0" d="M76.9,56.4l9.5,3c-1.5,5.3-3.9,9.2-7.2,11.8c-3.4,2.6-7.7,3.8-12.8,3.8c-6.4,0-11.7-2.2-15.8-6.6
		c-4.1-4.4-6.2-10.4-6.2-18c0-8,2.1-14.3,6.2-18.7c4.2-4.5,9.6-6.7,16.4-6.7c5.9,0,10.7,1.7,14.4,5.2c2.2,2.1,3.8,5,4.9,8.9
		l-9.7,2.3C76,39,74.8,37,73,35.5c-1.8-1.5-4-2.2-6.6-2.2c-3.6,0-6.5,1.3-8.7,3.9c-2.2,2.6-3.3,6.7-3.3,12.5
		c0,6.1,1.1,10.5,3.3,13.1c2.2,2.6,5.1,3.9,8.6,3.9c2.6,0,4.8-0.8,6.7-2.5C74.7,62.5,76.1,59.9,76.9,56.4z"/>
</g>
</svg>
