<?xml version="1.0" encoding="utf-8"?>
<!-- Generator: Adobe Illustrator 25.2.1, SVG Export Plug-In . SVG Version: 6.00 Build 0)  -->
<svg version="1.1" id="Layer_1" xmlns="http://www.w3.org/2000/svg" xmlns:xlink="http://www.w3.org/1999/xlink" x="0px" y="0px"
	 viewBox="0 0 100 100" style="enable-background:new 0 0 100 100;" xml:space="preserve">
<style type="text/css">
	.st0{fill:#010101;}
</style>
<g>
	<path class="st0" d="M10,76.3v-50h10.1v22.2l20.4-22.2H54L35.2,45.7l19.8,30.5H42L28.3,52.8l-8.2,8.4v15.1H10z"/>
	<path class="st0" d="M91.4,76.3h-9.6V57.8c0-3.9-0.2-6.4-0.6-7.6c-0.4-1.1-1.1-2-2-2.7c-0.9-0.6-2-1-3.3-1c-1.7,0-3.1,0.5-4.5,1.4
		c-1.3,0.9-2.2,2.1-2.7,3.6C68.2,53,68,55.8,68,59.9v16.4h-9.6V40h8.9v5.3c3.2-4.1,7.1-6.1,11.9-6.1c2.1,0,4,0.4,5.8,1.1
		c1.8,0.8,3.1,1.7,4,2.9c0.9,1.2,1.5,2.5,1.9,4c0.4,1.5,0.5,3.6,0.5,6.4V76.3z"/>
</g>
</svg>
