<?xml version="1.0" encoding="utf-8"?>
<!-- Generator: Adobe Illustrator 25.2.1, SVG Export Plug-In . SVG Version: 6.00 Build 0)  -->
<svg version="1.1" id="Layer_1" xmlns="http://www.w3.org/2000/svg" xmlns:xlink="http://www.w3.org/1999/xlink" x="0px" y="0px"
	 viewBox="0 0 100 100" style="enable-background:new 0 0 100 100;" xml:space="preserve">
<style type="text/css">
	.st0{fill:#010101;}
</style>
<g>
	<path class="st0" d="M8,74.2V25.8h9.8v21.5l19.7-21.5h13.1L32.4,44.7l19.2,29.5H38.9L25.6,51.5l-7.9,8.1v14.6H8z"/>
	<path class="st0" d="M91.6,49.5l-9.1,1.7c-0.3-1.8-1-3.2-2.1-4.1c-1.1-0.9-2.5-1.4-4.2-1.4c-2.3,0-4.2,0.8-5.5,2.4
		c-1.4,1.6-2.1,4.3-2.1,8c0,4.2,0.7,7.1,2.1,8.8c1.4,1.7,3.3,2.6,5.6,2.6c1.8,0,3.2-0.5,4.3-1.5c1.1-1,1.9-2.7,2.4-5.2l9.1,1.6
		c-0.9,4.2-2.8,7.3-5.4,9.5c-2.7,2.1-6.3,3.2-10.8,3.2c-5.1,0-9.2-1.6-12.3-4.9c-3-3.2-4.6-7.7-4.6-13.4c0-5.8,1.5-10.3,4.6-13.5
		c3.1-3.2,7.2-4.8,12.4-4.8c4.3,0,7.7,0.9,10.2,2.8C88.7,43,90.5,45.8,91.6,49.5z M65.2,25h7.5l3.6,4.9l3.8-4.9h7.5l-6.8,9.7h-8.6
		L65.2,25z"/>
</g>
</svg>
