<?xml version="1.0" encoding="utf-8"?>
<!-- Generator: Adobe Illustrator 25.2.1, SVG Export Plug-In . SVG Version: 6.00 Build 0)  -->
<svg version="1.1" id="Layer_1" xmlns="http://www.w3.org/2000/svg" xmlns:xlink="http://www.w3.org/1999/xlink" x="0px" y="0px"
	 viewBox="0 0 100 100" style="enable-background:new 0 0 100 100;" xml:space="preserve">
<style type="text/css">
	.st0{fill:#010101;}
	.st1{font-family:'MyriadPro-Regular';}
	.st2{font-size:62.8638px;}
</style>
<g>
	<path class="st0" d="M9.1,64.9V18.5h31.8v7.8H18.4v11h19.4v7.8H18.4v19.7H9.1z"/>
	<path class="st0" d="M75.7,67.6h-8.8v-5.2c-1.5,2-3.2,3.6-5.2,4.5c-2,1-4,1.5-6,1.5c-4.1,0-7.6-1.6-10.5-4.9
		c-2.9-3.3-4.4-7.9-4.4-13.8c0-6,1.4-10.6,4.3-13.8c2.8-3.1,6.4-4.7,10.8-4.7c4,0,7.4,1.7,10.3,5V18.5h9.4V67.6z M50.5,49.1
		c0,3.8,0.5,6.6,1.6,8.3c1.5,2.5,3.6,3.7,6.4,3.7c2.2,0,4-0.9,5.5-2.8c1.5-1.8,2.3-4.6,2.3-8.3c0-4.1-0.7-7-2.2-8.8
		c-1.5-1.8-3.4-2.7-5.7-2.7c-2.2,0-4.1,0.9-5.6,2.7C51.3,42.9,50.5,45.5,50.5,49.1z"/>
	<text transform="matrix(1 0 0 1 75.6662 68.4508)" class="st1 st2">j</text>
</g>
</svg>
