<?xml version="1.0" encoding="utf-8"?>
<!-- Generator: Adobe Illustrator 25.2.1, SVG Export Plug-In . SVG Version: 6.00 Build 0)  -->
<svg version="1.1" id="Layer_1" xmlns="http://www.w3.org/2000/svg" xmlns:xlink="http://www.w3.org/1999/xlink" x="0px" y="0px"
	 viewBox="0 0 100 100" style="enable-background:new 0 0 100 100;" xml:space="preserve">
<style type="text/css">
	.st0{fill:#010101;}
</style>
<g>
	<path class="st0" d="M48.7,64.5V52.8c-3.7-1-6.3-2.6-8-4.7c-1.7-2.1-2.6-4.7-2.6-7.7c0-3.1,1-5.6,2.9-7.7c1.9-2.1,4.5-3.3,7.7-3.6
		v-2.8h4.1V29c3,0.4,5.3,1.4,7.1,3c1.8,1.7,2.9,3.9,3.4,6.7l-7.1,0.9c-0.4-2.2-1.5-3.7-3.4-4.5v10.9c4.5,1.2,7.5,2.8,9.1,4.7
		c1.6,1.9,2.4,4.4,2.4,7.4c0,3.4-1,6.2-3.1,8.5c-2,2.3-4.9,3.7-8.5,4.2v5.2h-4.1v-5.1c-3.2-0.4-5.8-1.6-7.9-3.6
		c-2-2-3.3-4.9-3.9-8.5l7.3-0.8c0.3,1.5,0.9,2.8,1.7,3.9C46.8,63.2,47.7,64,48.7,64.5z M48.7,35.1c-1.1,0.4-2,1-2.6,1.9
		c-0.7,0.9-1,1.9-1,3c0,1,0.3,1.9,0.9,2.8c0.6,0.8,1.5,1.5,2.7,2.1V35.1z M52.8,64.9c1.4-0.3,2.5-0.9,3.4-1.9c0.9-1,1.3-2.2,1.3-3.6
		c0-1.2-0.4-2.3-1.1-3.2c-0.7-0.9-1.9-1.6-3.6-2.1V64.9z"/>
</g>
</svg>
