<?xml version="1.0" encoding="utf-8"?>
<!-- Generator: Adobe Illustrator 25.2.1, SVG Export Plug-In . SVG Version: 6.00 Build 0)  -->
<svg version="1.1" id="Layer_1" xmlns="http://www.w3.org/2000/svg" xmlns:xlink="http://www.w3.org/1999/xlink" x="0px" y="0px"
	 viewBox="0 0 100 100" style="enable-background:new 0 0 100 100;" xml:space="preserve">
<style type="text/css">
	.st0{fill:#010101;}
</style>
<g>
	<g transform="translate(0.000000,511.000000) scale(0.100000,-0.100000)">
		<path class="st0" d="M773.8,4858.5c-19.8-1.4-79.1-10.4-105.1-15.6l-26-5.4l-0.7-33.3l-0.7-33.3l19.6,6.6
			c10.9,3.8,27.6,8.5,37.3,10.4c21.5,4.3,84.8,10.9,105.5,10.9h15.1l-22-11.3c-12.3-6.1-28.6-16-36.6-22.2
			c-42.3-32.8-81.7-91.6-95.6-143.5c-4.5-17-5.2-25.7-5.2-56.7c0.2-43.9,4.5-62.6,21.5-96.8c9.2-18.7,14.9-26,32.6-43.9
			c18.7-18.9,24.5-23.1,46.3-33.8c39-19.1,79.1-27.6,140.2-30.2c57.6-2.4,105.8,5.7,144.5,24.1l22,10.4v33c0,18.4-0.5,33.3-0.9,33.3
			c-0.2,0-11.8-5.2-25.3-11.6c-45.6-21.5-80-29.5-126.1-29.3c-71.8,0.2-120.9,15.8-153.7,49.3c-24.5,24.8-36.4,55.5-36.4,94.9
			c0,55.2,19.8,101,60.9,140.2c49.8,47.5,110.7,73.9,183,78.8l22.9,1.7v27.9v27.6l-17,4C920.9,4856.9,831.7,4863,773.8,4858.5z"/>
		<path class="st0" d="M129.1,4814.4c-16-4.2-31.4-14.2-51.5-33.3c-31.4-30.2-43.4-56-43.7-94.4l-0.2-23.6l-12.5-1.4
			c-29.3-3.8-58.5-26.4-73.7-57.1c-13-26.7-14.2-37.5-14.2-144.9v-97.5H-30H6.6v98.7c0,58.8,0.9,102,2.4,106.9
			c3.1,10.6,21.7,28.6,33.8,32.6c8,2.8,10.2,2.4,30-6.6c28.1-12.7,50.3-18.7,80.3-21.5c37.1-3.5,56.4,0.9,90.4,20.8
			c20.5,11.8,29,20.5,37.5,37.8c7.8,15.8,7.8,15.8,7.6,51.2c0,39.2-3.1,52.2-17.7,74.8C243.6,4798.8,175.2,4826.9,129.1,4814.4z
			 M182.5,4741.2c11.6-2.8,15.8-5.2,22.7-13c8.5-9.4,16.3-30.2,16.3-43c0-19.1-17.5-45.1-32.8-49.3c-15.6-4.2-76.3,7.3-83.1,15.8
			c-1.9,2.1-3.1,11.8-3.1,25c-0.2,25.3,4,35.9,20.5,53.1C137.4,4744.8,153.9,4747.8,182.5,4741.2z"/>
		<path class="st0" d="M426.8,4588.7v-47.2h37.8h37.8v47.2v47.2h-37.8h-37.8V4588.7z"/>
		<path class="st0" d="M868.3,4578.1v-27.1h27.1h27.1v27.1v27.1h-27.1h-27.1V4578.1z"/>
	</g>
</g>
</svg>
