<?xml version="1.0" encoding="utf-8"?>
<!-- Generator: Adobe Illustrator 25.2.1, SVG Export Plug-In . SVG Version: 6.00 Build 0)  -->
<svg version="1.1" id="Layer_1" xmlns="http://www.w3.org/2000/svg" xmlns:xlink="http://www.w3.org/1999/xlink" x="0px" y="0px"
	 viewBox="0 0 100 100" style="enable-background:new 0 0 100 100;" xml:space="preserve">
<style type="text/css">
	.st0{fill:#010101;}
</style>
<g>
	<path class="st0" d="M-6.3,76.3V27.1h9.7l20.1,32.8V27.1h9.2v49.2h-10L2.9,44.2v32.1H-6.3z"/>
	<path class="st0" d="M43.6,40.6h5.2V38c0-3,0.3-5.2,1-6.7c0.6-1.5,1.8-2.7,3.5-3.6c1.7-0.9,3.9-1.4,6.5-1.4c2.7,0,5.3,0.4,7.9,1.2
		L66.4,34c-1.5-0.4-2.9-0.5-4.3-0.5c-1.4,0-2.3,0.3-2.9,1c-0.6,0.6-0.9,1.9-0.9,3.7v2.5h7v7.4h-7v28.2h-9.4V48.1h-5.2V40.6z"/>
	<path class="st0" d="M74.7,76.3V27.1h9.4v26.1l11-12.5h11.6l-12.2,13l13,22.6H97.5l-9-16l-4.4,4.6v11.4H74.7z"/>
</g>
</svg>
