<?xml version="1.0" encoding="utf-8"?>
<!-- Generator: Adobe Illustrator 25.2.1, SVG Export Plug-In . SVG Version: 6.00 Build 0)  -->
<svg version="1.1" id="Layer_1" xmlns="http://www.w3.org/2000/svg" xmlns:xlink="http://www.w3.org/1999/xlink" x="0px" y="0px"
	 viewBox="0 0 100 100" style="enable-background:new 0 0 100 100;" xml:space="preserve">
<style type="text/css">
	.st0{fill:#010101;}
</style>
<g>
	<path class="st0" d="M69,28.3L67,37.4c-1.9-1.9-4.6-2.8-8.2-2.8c-3.6,0-6.5,1.3-8.7,3.9c-1.3,1.5-2.1,3.3-2.7,5.4h18.1L64.5,49
		H46.8c0,0.5,0,1.2,0,1.9c0,0.8,0,1.6,0.1,2.4h16.8l-1.1,5.1h-15c0.5,2.4,1.4,4.2,2.5,5.5c2.2,2.6,5.1,3.9,8.6,3.9
		c4.2,0,7.6-1.3,10.1-3.9v10.1c-2.9,1.4-6.2,2.1-10,2.1c-6.4,0-11.7-2.2-15.8-6.6c-2.8-3-4.7-6.7-5.6-11.2h-4.9l1.1-5.1h3.2
		c0-0.5,0-1.1,0-1.7c0-1,0-1.9,0.1-2.7h-4.3l1.1-5.1h3.9c0.9-4.4,2.8-8,5.5-11c4.2-4.4,9.6-6.7,16.4-6.7C63,26.3,66.2,26.9,69,28.3z
		"/>
</g>
</svg>
