<?xml version="1.0" encoding="utf-8"?>
<!-- Generator: Adobe Illustrator 25.2.1, SVG Export Plug-In . SVG Version: 6.00 Build 0)  -->
<svg version="1.1" id="Layer_1" xmlns="http://www.w3.org/2000/svg" xmlns:xlink="http://www.w3.org/1999/xlink" x="0px" y="0px"
	 viewBox="0 0 100 100" style="enable-background:new 0 0 100 100;" xml:space="preserve">
<style type="text/css">
	.st0{fill:#010101;}
</style>
<g>
	<path class="st0" d="M29.7,26.3h18.5c4.2,0,7.3,0.3,9.5,1c2.9,0.9,5.4,2.4,7.5,4.6c2.1,2.2,3.7,4.9,4.8,8.1
		c1.1,3.2,1.6,7.1,1.6,11.8c0,4.1-0.5,7.7-1.5,10.6c-1.3,3.6-3,6.6-5.4,8.8c-1.8,1.7-4.1,3-7.1,4c-2.2,0.7-5.2,1.1-8.9,1.1h-19V26.3
		z M39.8,34.7v33.1h7.5c2.8,0,4.9-0.2,6.1-0.5c1.6-0.4,3-1.1,4.1-2.1c1.1-1,2-2.6,2.6-4.8c0.7-2.2,1-5.3,1-9.2c0-3.9-0.3-6.8-1-8.9
		c-0.7-2.1-1.6-3.7-2.9-4.8c-1.2-1.2-2.8-1.9-4.7-2.4c-1.4-0.3-4.2-0.5-8.3-0.5H39.8z"/>
</g>
</svg>
