<?xml version="1.0" encoding="utf-8"?>
<!-- Generator: Adobe Illustrator 25.2.1, SVG Export Plug-In . SVG Version: 6.00 Build 0)  -->
<svg version="1.1" id="Layer_1" xmlns="http://www.w3.org/2000/svg" xmlns:xlink="http://www.w3.org/1999/xlink" x="0px" y="0px"
	 viewBox="0 0 100 100" style="enable-background:new 0 0 100 100;" xml:space="preserve">
<style type="text/css">
	.st0{fill:#010101;}
</style>
<g>
	<g>
		<path class="st0" d="M33.9,52.8c0,2.5,0.4,4.8,1.2,7c0.8,2.1,1.9,4,3.4,5.6c1.5,1.6,3.3,2.8,5.5,3.7c2.2,0.9,4.7,1.3,7.4,1.3h21.9
			v5.9H28.4v-5.9H36c-2.7-2-4.7-4.5-6.2-7.6c-1.5-3-2.2-6.3-2.2-10c0-2.4,0.3-4.8,1-7c0.6-2.2,1.6-4.2,2.8-6.1
			c1.2-1.8,2.7-3.5,4.4-4.9c1.7-1.4,3.7-2.5,5.9-3.3v-5.4h6.1v3.9c0.5,0,1-0.1,1.5-0.1c0.5,0,1-0.1,1.5-0.1c0.5,0,1,0,1.4,0
			c0.5,0,0.9,0.1,1.4,0.1v-3.9h6.1v5.3c2.2,0.8,4.2,1.9,5.9,3.4c1.7,1.4,3.2,3.1,4.4,4.9c1.2,1.9,2.1,3.9,2.8,6.2
			c0.6,2.2,1,4.6,1,7.2h-6.4c0-1.7-0.2-3.4-0.5-4.9c-0.3-1.6-0.8-3-1.4-4.4c-0.6-1.3-1.4-2.6-2.4-3.6c-1-1.1-2.1-2-3.3-2.8v15.7
			h-6.1V35.4c-0.9-0.1-1.9-0.2-2.8-0.2c-1.1,0-2.1,0.1-3,0.2v17.8h-6.1V37.5c-1.3,0.8-2.4,1.7-3.4,2.7c-1,1.1-1.8,2.3-2.4,3.6
			c-0.6,1.3-1.1,2.7-1.5,4.2C34,49.6,33.9,51.2,33.9,52.8z"/>
	</g>
</g>
</svg>
