<?xml version="1.0" encoding="utf-8"?>
<!-- Generator: Adobe Illustrator 25.2.1, SVG Export Plug-In . SVG Version: 6.00 Build 0)  -->
<svg version="1.1" id="Layer_1" xmlns="http://www.w3.org/2000/svg" xmlns:xlink="http://www.w3.org/1999/xlink" x="0px" y="0px"
	 viewBox="0 0 100 100" style="enable-background:new 0 0 100 100;" xml:space="preserve">
<style type="text/css">
	.st0{fill:#010101;}
</style>
<g>
	<path class="st0" d="M68.5,58c-2.2,8.1-7.2,12.5-15,13.1v5.1h-4.1v-5.1c-4.5-0.4-8.4-2.2-11.4-5.5c-3.5-3.7-5.3-8.8-5.3-15.2
		c0-6.8,1.8-12.1,5.3-15.9c3-3.2,6.8-5,11.4-5.5v-2.7h4.1v2.7c4.3,0.3,7.9,1.7,10.6,4.4c1.9,1.8,3.3,4.3,4.2,7.5l-8.2,2
		c-0.5-2.1-1.5-3.8-3-5c-1-0.8-2.3-1.4-3.6-1.6v27.8c3.5-0.9,5.8-3.7,6.9-8.4L68.5,58z M49.5,64V36.1c-2.1,0.4-3.9,1.4-5.3,3.1
		c-1.9,2.2-2.9,5.7-2.9,10.6c0,5.2,0.9,8.9,2.8,11.1C45.6,62.6,47.4,63.6,49.5,64z"/>
</g>
</svg>
