<?xml version="1.0" encoding="utf-8"?>
<!-- Generator: Adobe Illustrator 25.2.1, SVG Export Plug-In . SVG Version: 6.00 Build 0)  -->
<svg version="1.1" id="Layer_1" xmlns="http://www.w3.org/2000/svg" xmlns:xlink="http://www.w3.org/1999/xlink" x="0px" y="0px"
	 viewBox="0 0 100 100" style="enable-background:new 0 0 100 100;" xml:space="preserve">
<style type="text/css">
	.st0{fill:#010101;}
</style>
<g>
	<path class="st0" d="M65.3,64.8c2.2,1.6,4.6,2.8,7.2,3.8L69.2,75c-1.4-0.4-2.7-1-4-1.7c-0.3-0.1-2.3-1.5-6-4
		c-2.9,1.3-6.2,1.9-9.7,1.9c-6.9,0-12.3-2-16.2-6.1c-3.9-4-5.8-9.7-5.8-17.1c0-7.3,2-13,5.9-17C37.2,27,42.5,25,49.2,25
		c6.6,0,11.9,2,15.8,6.1c3.9,4.1,5.8,9.7,5.8,17c0,3.9-0.5,7.3-1.6,10.2C68.4,60.6,67.1,62.7,65.3,64.8z M58,59.7
		c1.2-1.4,2-3,2.6-4.9c0.6-1.9,0.9-4.2,0.9-6.7c0-5.2-1.1-9-3.4-11.6c-2.3-2.6-5.3-3.8-8.9-3.8c-3.7,0-6.7,1.3-9,3.8
		c-2.3,2.6-3.4,6.4-3.4,11.6c0,5.2,1.1,9.1,3.4,11.7c2.3,2.6,5.2,3.9,8.7,3.9c1.3,0,2.5-0.2,3.7-0.6c-1.8-1.2-3.7-2.1-5.6-2.8
		l2.5-5.2C52.5,56.2,55.3,57.7,58,59.7z"/>
</g>
</svg>
