<?xml version="1.0" encoding="utf-8"?>
<!-- Generator: Adobe Illustrator 25.2.1, SVG Export Plug-In . SVG Version: 6.00 Build 0)  -->
<svg version="1.1" id="Layer_1" xmlns="http://www.w3.org/2000/svg" xmlns:xlink="http://www.w3.org/1999/xlink" x="0px" y="0px"
	 viewBox="0 0 100 100" style="enable-background:new 0 0 100 100;" xml:space="preserve">
<style type="text/css">
	.st0{fill:#010101;}
</style>
<g>
	<path class="st0" d="M58.8,25c-0.4,0-0.8,0-1.2,0.1c-3.3,0.3-6.1,2.6-7.3,6.4c-0.5,1.6-0.9,3.2-1.2,4.9l-0.6,3.4h-5.8
		c-0.8,0-1.4,0.6-1.4,1.4s0.6,1.4,1.4,1.4l5.4,0l-1.4,11.7c-0.6,5.3-1.3,9.9-2,14.3c-0.4,2.6-1.7,3.9-3.9,4.1c0.4-0.6,0.6-1.3,0.6-2
		c0-1.8-1.3-3.2-2.8-3.2c-1.6,0-2.8,1.4-2.8,3.2c0.2,2.2,2,3.3,2.6,3.7c0.7,0.4,1.5,0.6,2.4,0.6c2.5,0,4.9-1.4,6.1-3.6
		c1.9-3.4,2.8-6.9,3.5-10.2c1-4.4,1.6-8.9,2.2-13.3c0.3-1.8,0.5-3.6,0.8-5.4l5.7,0c0.8,0,1.4-0.6,1.4-1.4s-0.6-1.4-1.4-1.4h-5.4
		c1-6.4,1.7-9.4,2-10.7c0.3-0.9,1-2.1,3.3-2.1c0.2,0,0.3,0,0.5,0c-0.3,0.6-0.6,1.3-0.6,1.7c0,1.5,1.2,2.8,2.8,2.8
		c1.5,0,2.8-1.2,2.8-2.8C64.3,27.8,63.3,25,58.8,25z"/>
</g>
</svg>
