<?xml version="1.0" encoding="utf-8"?>
<!-- Generator: Adobe Illustrator 25.2.1, SVG Export Plug-In . SVG Version: 6.00 Build 0)  -->
<svg version="1.1" id="Layer_1" xmlns="http://www.w3.org/2000/svg" xmlns:xlink="http://www.w3.org/1999/xlink" x="0px" y="0px"
	 viewBox="0 0 100 100" style="enable-background:new 0 0 100 100;" xml:space="preserve">
<style type="text/css">
	.st0{fill:#010101;}
</style>
<g>
	<g>
		<g>
			<path class="st0" d="M67.9,56.4v-8.1h21v19.2c-2,2-5,3.7-8.9,5.2c-3.9,1.5-7.8,2.3-11.8,2.3c-5,0-9.5-1.1-13.2-3.2
				c-3.8-2.1-6.6-5.1-8.5-9.1c-1.9-3.9-2.8-8.2-2.8-12.9c0-5,1.1-9.5,3.2-13.4c2.1-3.9,5.2-6.9,9.3-9c3.1-1.6,6.9-2.4,11.6-2.4
				c6,0,10.7,1.3,14,3.8c3.4,2.5,5.5,6,6.5,10.4l-9.7,1.8c-0.7-2.4-2-4.2-3.8-5.6c-1.9-1.4-4.2-2.1-7-2.1c-4.3,0-7.6,1.4-10.2,4.1
				c-2.5,2.7-3.8,6.7-3.8,12c0,5.7,1.3,10,3.8,12.9c2.5,2.9,5.9,4.3,10,4.3c2,0,4.1-0.4,6.1-1.2c2.1-0.8,3.8-1.8,5.3-2.9v-6.1H67.9z
				"/>
		</g>
	</g>
	<g>
		<path class="st0" d="M11.1,75V25h34.3v8.5H21.2v11.8h20.9v8.5H21.2V75H11.1z"/>
	</g>
</g>
</svg>
