<?xml version="1.0" encoding="utf-8"?>
<!-- Generator: Adobe Illustrator 25.2.1, SVG Export Plug-In . SVG Version: 6.00 Build 0)  -->
<svg version="1.1" id="Layer_1" xmlns="http://www.w3.org/2000/svg" xmlns:xlink="http://www.w3.org/1999/xlink" x="0px" y="0px"
	 viewBox="0 0 100 100" style="enable-background:new 0 0 100 100;" xml:space="preserve">
<style type="text/css">
	.st0{fill:#010101;}
</style>
<g>
	<g>
		<g>
			<path class="st0" d="M51.8,56.3v-5.7h14.8v13.5c-1.4,1.4-3.5,2.6-6.2,3.7c-2.7,1.1-5.5,1.6-8.3,1.6c-3.5,0-6.6-0.7-9.3-2.2
				c-2.6-1.5-4.6-3.6-5.9-6.4c-1.3-2.8-2-5.8-2-9c0-3.5,0.7-6.7,2.2-9.4c1.5-2.7,3.6-4.9,6.5-6.3c2.2-1.1,4.9-1.7,8.1-1.7
				c4.2,0,7.5,0.9,9.9,2.7c2.4,1.8,3.9,4.2,4.6,7.3l-6.8,1.3c-0.5-1.7-1.4-3-2.7-3.9c-1.3-1-3-1.4-4.9-1.4c-3,0-5.4,0.9-7.1,2.8
				c-1.8,1.9-2.7,4.7-2.7,8.4c0,4,0.9,7,2.7,9.1c1.8,2,4.1,3,7,3c1.4,0,2.9-0.3,4.3-0.8c1.4-0.6,2.7-1.2,3.7-2v-4.3H51.8z"/>
		</g>
	</g>
	<rect x="47.4" y="26.3" class="st0" width="5.8" height="10.4"/>
	<rect x="49.4" y="65.9" class="st0" width="5.8" height="10.4"/>
</g>
</svg>
