<?xml version="1.0" encoding="utf-8"?>
<!-- Generator: Adobe Illustrator 25.2.1, SVG Export Plug-In . SVG Version: 6.00 Build 0)  -->
<svg version="1.1" id="Layer_1" xmlns="http://www.w3.org/2000/svg" xmlns:xlink="http://www.w3.org/1999/xlink" x="0px" y="0px"
	 viewBox="0 0 100 100" style="enable-background:new 0 0 100 100;" xml:space="preserve">
<style type="text/css">
	.st0{fill:#010101;}
</style>
<g>
	<g>
		<path class="st0" d="M22.1,75.5V26.3h33.7v8.3H32v11.6h20.5v8.3H32v20.9H22.1z"/>
		<path class="st0" d="M78.5,39.8v7.5h-6.4v14.4c0,2.9,0.1,4.6,0.2,5.1c0.1,0.5,0.4,0.9,0.8,1.2c0.4,0.3,1,0.5,1.6,0.5
			c0.9,0,2.1-0.3,3.8-0.9l0.8,7.3c-2.2,0.9-4.7,1.4-7.4,1.4c-1.7,0-3.2-0.3-4.6-0.9c-1.4-0.6-2.4-1.3-3-2.2
			c-0.6-0.9-1.1-2.1-1.3-3.7c-0.2-1.1-0.3-3.3-0.3-6.6V47.3h-4.3v-7.5h4.3v-7.1l9.5-5.5v12.6H78.5z"/>
	</g>
</g>
</svg>
