<?xml version="1.0" encoding="utf-8"?>
<!-- Generator: Adobe Illustrator 25.2.1, SVG Export Plug-In . SVG Version: 6.00 Build 0)  -->
<svg version="1.1" id="Layer_1" xmlns="http://www.w3.org/2000/svg" xmlns:xlink="http://www.w3.org/1999/xlink" x="0px" y="0px"
	 viewBox="0 0 100 100" style="enable-background:new 0 0 100 100;" xml:space="preserve">
<style type="text/css">
	.st0{fill:#010101;}
</style>
<g>
	<g>
		<path class="st0" d="M17.9,65.5V26.3h16.7c4.2,0,7.2,0.4,9.1,1.1c1.9,0.7,3.4,2,4.6,3.8c1.1,1.8,1.7,3.9,1.7,6.2
			c0,2.9-0.9,5.4-2.6,7.3c-1.7,1.9-4.3,3.1-7.8,3.6c1.7,1,3.1,2.1,4.2,3.3c1.1,1.2,2.6,3.3,4.5,6.4l4.8,7.6h-9.5L38,56.9
			c-2-3-3.4-5-4.2-5.8c-0.7-0.8-1.5-1.3-2.4-1.6c-0.8-0.3-2.2-0.4-4-0.4h-1.6v16.4H17.9z M25.8,42.8h5.9c3.8,0,6.2-0.2,7.1-0.5
			c0.9-0.3,1.7-0.9,2.2-1.7c0.5-0.8,0.8-1.8,0.8-2.9c0-1.3-0.4-2.4-1.1-3.2c-0.7-0.8-1.7-1.3-3-1.5c-0.6-0.1-2.6-0.1-5.8-0.1h-6.2
			V42.8z"/>
		<path class="st0" d="M55.8,37.1h7v4.2c0.9-1.4,2.1-2.6,3.7-3.5c1.6-0.9,3.3-1.3,5.2-1.3c3.3,0,6.1,1.3,8.4,3.9
			c2.3,2.6,3.4,6.2,3.4,10.8c0,4.7-1.2,8.4-3.5,11.1c-2.3,2.6-5.1,3.9-8.4,3.9c-1.6,0-3-0.3-4.3-0.9c-1.3-0.6-2.6-1.7-4-3.2v14.3
			h-7.5V37.1z M63.2,50.8c0,3.2,0.6,5.5,1.9,7.1c1.3,1.5,2.8,2.3,4.6,2.3c1.7,0,3.2-0.7,4.4-2.1c1.2-1.4,1.7-3.7,1.7-6.9
			c0-3-0.6-5.2-1.8-6.6c-1.2-1.4-2.7-2.2-4.4-2.2c-1.8,0-3.4,0.7-4.6,2.1C63.8,45.9,63.2,48,63.2,50.8z"/>
	</g>
</g>
</svg>
