<?xml version="1.0" encoding="utf-8"?>
<!-- Generator: Adobe Illustrator 25.2.1, SVG Export Plug-In . SVG Version: 6.00 Build 0)  -->
<svg version="1.1" id="Layer_1" xmlns="http://www.w3.org/2000/svg" xmlns:xlink="http://www.w3.org/1999/xlink" x="0px" y="0px"
	 viewBox="0 0 100 100" style="enable-background:new 0 0 100 100;" xml:space="preserve">
<style type="text/css">
	.st0{fill:#010101;}
</style>
<g>
	<path class="st0" d="M41.1,61.2c0,2.9-1.5,5.5-4.6,7.8c-3,2.3-6.5,3.4-10.4,3.4c-3.3,0-5.8-0.8-7.6-2.5c-1.8-1.6-2.8-3.9-2.8-6.9
		c0-2.8,0.3-5.2,1-7.2c0.8-2.3,2.3-5.2,4.6-8.5l1.8,1.2c-1.5,2.2-2.5,4.2-3.2,5.8c-0.6,1.6-0.9,3.3-0.9,4.9c0,1.7,0.6,3.1,1.9,4
		c1.3,0.9,3.1,1.4,5.4,1.4c3.4,0,6.1-0.6,8.2-1.9c2.1-1.3,3.1-3,3.1-5.1c0-0.4,0-0.6,0-0.9c0-0.2,0-0.4,0-0.5c0-0.7-0.1-1.6-0.2-2.5
		c-0.1-0.9-0.4-2.7-1-5.5c-0.8-4.5-1.6-9-2.5-13.6l-1.4-1c0-1.9,0.9-4.7,2.6-8.6l1.3,0.6c-0.1,0.3-0.1,0.6-0.1,0.9
		c0,0.8,0.4,1.4,1.2,1.9c1.2,0.6,2.3,1.3,3.3,1.9c-0.2,1.6-0.4,2.8-0.6,3.5c-0.2,0.7-0.6,1.8-1.3,3.2l-0.9-0.3
		c0,0.3,0.3,1.9,0.8,4.9c0.5,3,1,5.5,1.4,7.7c0.5,3.1,0.8,5,0.8,5.6V61.2z M58.7,66.9l-3,5.5l-4.2-2.1L49.1,75l-5.2-2.9l3.1-5.8
		l4.1,2.3l2.3-4.5L58.7,66.9z M57,61.9h-4c-2.2,0-3.8-0.9-4.8-2.7c-1.1-2-1.7-5.4-1.7-10.2v-8.1c0-1.8-0.3-3.3-0.8-4.3
		c-0.2-0.5-0.8-1.2-1.7-2.1l3.1-7.1c1.1,1.5,1.9,3,2.3,4.5c0.5,1.7,0.8,3.9,0.8,6.6V44c0,4,0.3,6.7,0.8,8.3c0.4,1.2,1.1,1.9,2,1.9h4
		V61.9z M70.6,61.9H52.7v-7.8h15c-0.2-1.3-0.6-2.4-1.1-3.3c-0.3-0.5-1-1.4-2-2.6l2.3-6.8c1.4,1.6,2.4,3.3,2.9,5.1
		c0.5,1.8,0.8,4.4,0.8,7.9V61.9z M84.3,62.6c0,1.2-0.7,2.7-2,4.6c-1.3,1.9-2.9,3.6-4.7,5c-2,1.6-3.7,2.3-5.1,2.3
		c-1.7,0-3.5-0.5-5.4-1.4c-1.7-0.8-4.3-2.5-7.9-4.9l1.2-1.8c1.7,1.1,3.1,1.9,4.1,2.3c1,0.4,2.2,0.6,3.4,0.6c1.3,0,2.6-0.4,3.9-1.1
		c1.3-0.7,3.1-2.1,5.4-4.1c3.2-2.8,4.7-5,4.7-6.5c0-0.8-0.3-1.8-0.9-3c-0.7-1.4-1.5-2.6-2.5-3.5l1.6-7.7c1.3,1.3,2.3,2.9,3,4.6
		c0.7,1.7,1.1,3.7,1.1,5.9V62.6z"/>
</g>
</svg>
