<?xml version="1.0" encoding="utf-8"?>
<!-- Generator: Adobe Illustrator 25.2.1, SVG Export Plug-In . SVG Version: 6.00 Build 0)  -->
<svg version="1.1" id="Layer_1" xmlns="http://www.w3.org/2000/svg" xmlns:xlink="http://www.w3.org/1999/xlink" x="0px" y="0px"
	 viewBox="0 0 100 100" style="enable-background:new 0 0 100 100;" xml:space="preserve">
<style type="text/css">
	.st0{fill:#010101;}
</style>
<g>
	<path class="st0" d="M27.1,56.9c0,2-0.2,3.8-0.7,5.4c-0.5,1.6-1.4,3.8-2.7,6.6l-2-0.8c0.5-2.8,0.8-5.1,0.8-6.9
		c0-1.3-0.1-3.3-0.3-5.9c-0.2-2.6-0.5-5.2-0.8-7.7c-0.3-2.6-0.9-5.6-1.6-9.1c-0.3-1.2-0.4-2.1-0.4-2.6c0-0.7,0.3-1.9,1-3.5
		c0.7-1.6,1.6-3.6,2.9-6l2,11.7c0.7,4.5,1.2,8.3,1.5,11.6C27,52.1,27.1,54.6,27.1,56.9z"/>
	<path class="st0" d="M38.9,76.3v-9.3h9.3v9.3H38.9z"/>
	<path class="st0" d="M80.7,66.5h-15c-1.5,0-2.6-0.3-3.4-0.9c-1-0.8-1.4-2-1.4-3.7c0-1,0-2,0.1-3.2c0.1-1.1,0.2-2.3,0.4-3.4l1.3-0.1
		c0.2,0.8,0.6,1.3,1.2,1.7c0.6,0.4,1.3,0.5,2.2,0.5h11.4c-0.5-3.3-1.4-5.9-2.7-7.8c-1-1.6-2.5-3-4.3-4.2l2.4-10.4
		c2.9,2.1,4.9,4.9,6.1,8.3c1.1,3.1,1.7,7.3,1.7,12.4V66.5z"/>
</g>
</svg>
