<?xml version="1.0" encoding="utf-8"?>
<!-- Generator: Adobe Illustrator 25.2.1, SVG Export Plug-In . SVG Version: 6.00 Build 0)  -->
<svg version="1.1" id="Layer_1" xmlns="http://www.w3.org/2000/svg" xmlns:xlink="http://www.w3.org/1999/xlink" x="0px" y="0px"
	 viewBox="0 0 100 100" style="enable-background:new 0 0 100 100;" xml:space="preserve">
<style type="text/css">
	.st0{fill:#010101;}
</style>
<g>
	<path class="st0" d="M14.9,76.3v-50H25v22.2l20.4-22.2H59L40.2,45.7L60,76.3H46.9L33.2,52.8L25,61.2v15.1H14.9z"/>
	<path class="st0" d="M72.6,76.3H63V40h8.9v5.2c1.5-2.4,2.9-4,4.1-4.8c1.2-0.8,2.6-1.2,4.1-1.2c2.2,0,4.3,0.6,6.3,1.8l-3,8.4
		c-1.6-1-3.1-1.6-4.5-1.6c-1.3,0-2.5,0.4-3.4,1.1c-0.9,0.7-1.7,2.1-2.2,4c-0.5,1.9-0.8,6-0.8,12.1V76.3z"/>
</g>
</svg>
