<?xml version="1.0" encoding="utf-8"?>
<!-- Generator: Adobe Illustrator 25.2.1, SVG Export Plug-In . SVG Version: 6.00 Build 0)  -->
<svg version="1.1" id="Layer_1" xmlns="http://www.w3.org/2000/svg" xmlns:xlink="http://www.w3.org/1999/xlink" x="0px" y="0px"
	 viewBox="0 0 100 100" style="enable-background:new 0 0 100 100;" xml:space="preserve">
<style type="text/css">
	.st0{fill:#010101;}
</style>
<g>
	<path class="st0" d="M42.5,65.8H21.4c-4.5,0-7.8-0.8-9.8-2.3C9.8,62,8.9,59.9,8.9,57c0-2,0.3-3.9,0.9-5.8c0.6-1.9,1.6-4.1,3.1-6.7
		l1.9,1.3c-0.8,1.6-1.4,2.8-1.6,3.6c-0.2,0.8-0.4,1.6-0.4,2.5c0,2,0.7,3.4,2.2,4.1c1.5,0.7,4.3,1.1,8.5,1.1h15.2l-3.8-21.4l-2-1.3
		c0-1.2,0.2-2.5,0.6-3.8c0.5-1.6,1.3-3.5,2.5-5.7l1.4,0.8c0,0.1,0,0.5-0.1,1c0,0.7,0.4,1.4,1.3,2c0.8,0.6,2,1.2,3.7,2
		c-0.2,1.3-0.5,2.7-0.8,3.9c-0.4,1.3-0.8,2.4-1.2,3.4l-1.1-0.4l3.4,19.5V65.8z M31.7,42.3c0,2.8-0.8,5-2.5,6.5
		c-1.7,1.6-4,2.3-6.9,2.3c-0.8,0-1.5,0-2-0.1c-0.5,0-1.3-0.2-2.4-0.4l0.4-2h0.6c2.1,0,4-0.3,5.8-0.9c1.8-0.6,2.6-1.3,2.6-2
		c0-0.3-0.1-0.5-0.3-0.6c-0.2-0.1-0.6-0.2-1.3-0.3c-2,0-3-0.9-3-2.6c0-1.3,0.2-2.7,0.7-4.2c0.5-1.5,1.2-3.1,2.1-4.7
		c0.6-1,1.2-1.7,1.8-2.1c0.6-0.5,1.5-0.9,2.7-1.3c0,0.8-0.1,1.7-0.1,2.7c0,1,0,1.8,0,2.6c-1.1,0.3-2.1,0.8-2.8,1.3
		c-0.7,0.5-1,0.9-1,1.3c0,0.4,0.7,0.8,2.1,0.9c1.3,0,2.2,0.3,2.7,0.8C31.4,40.1,31.7,41,31.7,42.3z"/>
	<path class="st0" d="M51.4,75v-8.9h8.9V75H51.4z"/>
	<path class="st0" d="M91.1,65.8H76.8c-1.4,0-2.4-0.3-3.2-0.9c-0.9-0.7-1.4-1.9-1.4-3.5c0-0.9,0-1.9,0.1-3c0.1-1.1,0.2-2.2,0.4-3.2
		l1.2-0.1c0.2,0.7,0.5,1.3,1.1,1.6c0.6,0.3,1.3,0.5,2.1,0.5h10.8c-0.5-3.1-1.3-5.6-2.5-7.4c-1-1.5-2.4-2.9-4.1-4l2.3-9.8
		c2.7,2,4.7,4.7,5.8,7.9c1.1,3,1.6,6.9,1.6,11.8V65.8z"/>
</g>
</svg>
