<?xml version="1.0" encoding="utf-8"?>
<!-- Generator: Adobe Illustrator 25.2.1, SVG Export Plug-In . SVG Version: 6.00 Build 0)  -->
<svg version="1.1" id="Layer_1" xmlns="http://www.w3.org/2000/svg" xmlns:xlink="http://www.w3.org/1999/xlink" x="0px" y="0px"
	 viewBox="0 0 100 100" style="enable-background:new 0 0 100 100;" xml:space="preserve">
<g>
	<path d="M34.1,46.7c0-3.4,0.5-6.4,1.5-9.1c1-2.7,2.3-5,4-6.8c1.7-1.9,3.7-3.3,6.1-4.3c2.4-1,4.9-1.5,7.7-1.5c2.5,0,4.8,0.5,6.8,1.6
		c2,1.1,3.7,2.3,5,3.6L61,34.8c-1-1-2.2-1.8-3.4-2.4c-1.3-0.6-2.7-0.9-4.3-0.9c-1.7,0-3.3,0.4-4.8,1c-1.4,0.7-2.7,1.7-3.7,3
		c-1,1.3-1.8,2.9-2.4,4.7c-0.6,1.9-0.9,4-0.9,6.3c0,2.4,0.3,4.5,0.9,6.4c0.6,1.9,1.4,3.5,2.4,4.8c1,1.3,2.3,2.3,3.8,3
		c1.5,0.7,3.1,1,4.9,1c1.7,0,3.2-0.4,4.5-1.1c1.3-0.7,2.6-1.7,3.8-3l4.1,4.5c-1.7,1.9-3.6,3.4-5.7,4.5c-2.1,1-4.5,1.6-7.1,1.6
		c-2.7,0-5.2-0.5-7.5-1.4c-2.3-0.9-4.3-2.3-6-4.1c-1.7-1.8-3.1-4.1-4-6.7C34.6,53.2,34.1,50.1,34.1,46.7L34.1,46.7z"/>
	<rect x="34.1" y="69.8" width="31.8" height="5.2"/>
</g>
</svg>
