<?xml version="1.0" encoding="utf-8"?>
<!-- Generator: Adobe Illustrator 25.2.1, SVG Export Plug-In . SVG Version: 6.00 Build 0)  -->
<svg version="1.1" id="Layer_1" xmlns="http://www.w3.org/2000/svg" xmlns:xlink="http://www.w3.org/1999/xlink" x="0px" y="0px"
	 viewBox="0 0 100 100" style="enable-background:new 0 0 100 100;" xml:space="preserve">
<style type="text/css">
	.st0{fill:#010101;}
</style>
<g>
	<path class="st0" d="M4.2,26.3h43.6v49.2h-13V36.8H17.1v22.1c0,5.6-0.6,9.6-1.9,11.8c-1.3,2.3-2.7,3.8-4.3,4.5
		c-1.6,0.7-4.1,1.1-7.6,1.1c-2.1,0-4.8-0.3-8.2-0.8v-9.6c0.3,0,1,0,2.2,0.1c1.4,0.1,2.4,0.1,3.1,0.1c1.8,0,2.8-0.6,3.2-1.7
		C4,63.2,4.2,60,4.2,54.7V26.3z"/>
	<path class="st0" d="M58.7,26.3h28.5c5.8,0,10.2,1.1,13.1,3.2c2.9,2.1,4.4,5.3,4.4,9.6c0,2.7-0.8,5.1-2.4,7.2c-1.6,2-3.6,3.4-6,4.1
		c3.4,0.8,5.9,2.4,7.6,4.7c1.7,2.3,2.5,4.8,2.5,7.5c0,3.8-1.4,6.9-4.2,9.3c-2.8,2.4-7,3.6-12.5,3.6h-31V26.3z M71.8,46.7h8.4
		c4,0,7-0.5,8.8-1.5c1.8-1,2.7-2.6,2.7-4.8c0-2.1-0.8-3.5-2.5-4.4c-1.7-0.9-4.7-1.3-9-1.3h-8.4V46.7z M71.8,67.1h10.3
		c3.7,0,6.4-0.4,8.1-1.3c1.7-0.9,2.5-2.5,2.5-4.8c0-2.4-1-4.1-2.9-5c-1.9-0.9-5.7-1.4-11.3-1.4h-6.7V67.1z"/>
</g>
</svg>
