<?xml version="1.0" encoding="utf-8"?>
<!-- Generator: Adobe Illustrator 25.2.1, SVG Export Plug-In . SVG Version: 6.00 Build 0)  -->
<svg version="1.1" id="Layer_1" xmlns="http://www.w3.org/2000/svg" xmlns:xlink="http://www.w3.org/1999/xlink" x="0px" y="0px"
	 viewBox="0 0 100 100" style="enable-background:new 0 0 100 100;" xml:space="preserve">
<style type="text/css">
	.st0{fill:#010101;}
</style>
<g>
	<path class="st0" d="M38,63.9H24.4c-1.3,0-2.3-0.3-3-0.8c-0.9-0.7-1.3-1.8-1.3-3.3c0-0.9,0-1.8,0.1-2.9c0.1-1,0.2-2.1,0.4-3.1
		l1.1-0.1c0.2,0.7,0.5,1.2,1.1,1.5c0.6,0.3,1.2,0.5,2,0.5h10.4c-0.5-3-1.3-5.3-2.4-7.1c-0.9-1.5-2.3-2.7-4-3.8l2.2-9.4
		c2.6,2,4.5,4.5,5.5,7.5c1,2.8,1.5,6.6,1.5,11.3V63.9z"/>
	<path class="st0" d="M40.9,72.8v-8.5h8.5v8.5H40.9z"/>
	<path class="st0" d="M80,63.2c0,3.1-1.6,5.8-4.8,8.2c-3.2,2.4-6.9,3.6-11,3.6c-3.4,0-6.1-0.9-8.1-2.6c-1.9-1.7-2.9-4.2-2.9-7.3
		c0-2.9,0.4-5.5,1.1-7.6c0.8-2.5,2.4-5.5,4.8-9l1.9,1.3c-1.6,2.4-2.7,4.4-3.3,6.1c-0.7,1.7-1,3.4-1,5.2c0,1.8,0.7,3.2,2,4.2
		c1.4,1,3.3,1.5,5.7,1.5c3.5,0,6.4-0.7,8.6-2.1c2.2-1.4,3.3-3.2,3.3-5.4c0-0.4,0-0.7,0-0.9c0-0.2,0-0.4,0-0.5c0-0.8-0.1-1.6-0.2-2.6
		c-0.1-0.9-0.5-2.9-1-5.8c-0.9-4.8-1.7-9.5-2.6-14.3L71,34c0-2,0.9-5,2.8-9l1.4,0.7c-0.1,0.3-0.1,0.6-0.1,1c0,0.8,0.4,1.5,1.2,2
		c1.2,0.7,2.4,1.3,3.5,2c-0.2,1.7-0.4,3-0.7,3.7c-0.2,0.7-0.7,1.9-1.4,3.3l-0.9-0.4c0,0.3,0.3,2,0.9,5.1c0.6,3.1,1.1,5.8,1.5,8.1
		c0.6,3.3,0.8,5.2,0.8,5.9V63.2z"/>
</g>
</svg>
