<?xml version="1.0" encoding="utf-8"?>
<!-- Generator: Adobe Illustrator 25.2.1, SVG Export Plug-In . SVG Version: 6.00 Build 0)  -->
<svg version="1.1" id="Layer_1" xmlns="http://www.w3.org/2000/svg" xmlns:xlink="http://www.w3.org/1999/xlink" x="0px" y="0px"
	 viewBox="0 0 100 100" style="enable-background:new 0 0 100 100;" xml:space="preserve">
<style type="text/css">
	.st0{fill:#010101;}
</style>
<g>
	<path class="st0" d="M76.1,41.4v6.9h-5.9v13.2c0,2.7,0.1,4.2,0.2,4.7c0.1,0.4,0.4,0.8,0.8,1.1c0.4,0.3,0.9,0.4,1.5,0.4
		c0.8,0,2-0.3,3.5-0.8l0.7,6.7c-2,0.9-4.3,1.3-6.9,1.3c-1.6,0-3-0.3-4.2-0.8c-1.3-0.5-2.2-1.2-2.8-2c-0.6-0.8-1-2-1.2-3.4
		c-0.2-1-0.3-3.1-0.3-6.1V48.3h-4v-6.9h4v-6.5l8.7-5.1v11.6H76.1z"/>
	<g>
		<path class="st0" d="M23.1,75V25h10.2v41.5h25.3V75H23.1z"/>
	</g>
</g>
</svg>
