<?xml version="1.0" encoding="utf-8"?>
<!-- Generator: Adobe Illustrator 25.2.1, SVG Export Plug-In . SVG Version: 6.00 Build 0)  -->
<svg version="1.1" id="Layer_1" xmlns="http://www.w3.org/2000/svg" xmlns:xlink="http://www.w3.org/1999/xlink" x="0px" y="0px"
	 viewBox="0 0 100 100" style="enable-background:new 0 0 100 100;" xml:space="preserve">
<style type="text/css">
	.st0{fill:#010101;}
</style>
<g>
	<g>
		<path class="st0" d="M24.7,64.8H-4.7V75H-13V56.3h4.2c1.8-2,3.2-5,4.4-9.2c1.1-4.1,1.8-11.2,2-21.3h31.4v30.5h4.2V75h-8.4V64.8z
			 M18.8,56.3l0-22H6.4c-0.4,10.7-2.1,18.1-5.1,22H18.8z"/>
		<path class="st0" d="M60.8,52.4l10.2,1.7c-1.3,3.8-3.4,6.6-6.2,8.6c-2.8,2-6.4,2.9-10.7,2.9c-6.8,0-11.8-2.2-15-6.6
			c-2.6-3.5-3.8-8-3.8-13.4c0-6.4,1.7-11.5,5.1-15.1C43.7,26.8,48,25,53.1,25c5.8,0,10.3,1.9,13.7,5.7c3.3,3.8,4.9,9.7,4.8,17.6
			H45.8c0.1,3.1,0.9,5.4,2.5,7.1c1.6,1.7,3.6,2.5,5.9,2.5c1.6,0,3-0.4,4.1-1.3C59.4,55.7,60.3,54.3,60.8,52.4z M61.4,42
			c-0.1-3-0.8-5.2-2.3-6.8c-1.5-1.5-3.2-2.3-5.3-2.3c-2.2,0-4.1,0.8-5.6,2.5C46.7,37,46,39.2,46,42H61.4z"/>
		<path class="st0" d="M77.7,25.9H88v14.2h14.7V25.9H113v38.9h-10.3V48.4H88v16.3H77.7V25.9z"/>
	</g>
</g>
</svg>
