<?xml version="1.0" encoding="utf-8"?>
<!-- Generator: Adobe Illustrator 25.2.1, SVG Export Plug-In . SVG Version: 6.00 Build 0)  -->
<svg version="1.1" id="Layer_1" xmlns="http://www.w3.org/2000/svg" xmlns:xlink="http://www.w3.org/1999/xlink" x="0px" y="0px"
	 viewBox="0 0 100 100" style="enable-background:new 0 0 100 100;" xml:space="preserve">
<style type="text/css">
	.st0{fill:#010101;}
</style>
<g>
	<path class="st0" d="M62,75H51l-4.4-11.4h-20L22.5,75H11.8l19.5-50h10.7L62,75z M43.4,55.2l-6.9-18.6l-6.8,18.6H43.4z"/>
	<path class="st0" d="M74.2,75h-9.7V38.5h9v5.2c1.5-2.5,2.9-4.1,4.1-4.8c1.2-0.8,2.6-1.2,4.2-1.2c2.2,0,4.3,0.6,6.4,1.8l-3,8.4
		c-1.6-1.1-3.1-1.6-4.5-1.6c-1.4,0-2.5,0.4-3.4,1.1c-0.9,0.7-1.7,2.1-2.2,4c-0.5,1.9-0.8,6-0.8,12.2V75z"/>
</g>
</svg>
