<?xml version="1.0" encoding="utf-8"?>
<!-- Generator: Adobe Illustrator 25.2.1, SVG Export Plug-In . SVG Version: 6.00 Build 0)  -->
<svg version="1.1" id="Layer_1" xmlns="http://www.w3.org/2000/svg" xmlns:xlink="http://www.w3.org/1999/xlink" x="0px" y="0px"
	 viewBox="0 0 100 100" style="enable-background:new 0 0 100 100;" xml:space="preserve">
<style type="text/css">
	.st0{fill:#010101;}
</style>
<g>
	<path class="st0" d="M10.7,63.4c0-0.6,0.1-1.3,0.4-1.8c0.3-0.6,0.6-1.1,1-1.5c0.4-0.4,0.9-0.8,1.5-1c0.6-0.3,1.2-0.4,1.9-0.4
		s1.3,0.1,1.9,0.4c0.6,0.3,1.1,0.6,1.5,1c0.4,0.4,0.8,0.9,1,1.5c0.3,0.6,0.4,1.2,0.4,1.8c0,0.6-0.1,1.3-0.4,1.8
		c-0.3,0.6-0.6,1.1-1,1.5c-0.4,0.4-0.9,0.8-1.5,1c-0.6,0.3-1.2,0.4-1.9,0.4s-1.3-0.1-1.9-0.4c-0.6-0.3-1.1-0.6-1.5-1
		c-0.4-0.4-0.8-0.9-1-1.5C10.8,64.7,10.7,64.1,10.7,63.4z"/>
	<path class="st0" d="M66.2,48.8C60,54.7,52.6,60.5,43.8,66.3C35.1,72.1,29.2,75,26.2,75c-1.3,0-2.4-0.3-3.2-1
		c-0.8-0.7-1.2-1.6-1.2-2.7c0-2,1.6-3.5,4.8-4.5c4.3-1.4,9.6-4.1,16-8.1C49,54.7,55,50,60.8,44.6c-3-2-4.5-4.3-4.5-6.7
		c0-1.6,0.5-2.8,1.5-3.7c1-0.9,2.4-1.4,4.2-1.4c2.9,0,5.5,1,7.6,3.1C76.9,28.6,82.1,25,85.2,25c2.7,0,4.1,1,4.1,3.1
		c0,2.4-1.6,4.3-4.8,5.8c-2.9,1.4-6.1,3.7-9.7,7.1c1.1,0.8,3,1.3,5.7,1.6c3,0.4,4.5,1.9,4.5,4.6c0,1.5-0.6,2.7-1.8,3.6
		c-1.2,0.9-2.7,1.3-4.5,1.3C74.7,52.2,70.5,51.1,66.2,48.8z"/>
</g>
</svg>
