<?xml version="1.0" encoding="utf-8"?>
<!-- Generator: Adobe Illustrator 25.2.1, SVG Export Plug-In . SVG Version: 6.00 Build 0)  -->
<svg version="1.1" id="Layer_1" xmlns="http://www.w3.org/2000/svg" xmlns:xlink="http://www.w3.org/1999/xlink" x="0px" y="0px"
	 viewBox="0 0 100 100" style="enable-background:new 0 0 100 100;" xml:space="preserve">
<style type="text/css">
	.st0{fill:#010101;}
</style>
<g>
	<g>
		<path class="st0" d="M2.4,25h9.9v26.6c0,4.2,0.1,7,0.4,8.2c0.4,2,1.4,3.6,3,4.8c1.6,1.2,3.8,1.8,6.6,1.8c2.8,0,4.9-0.6,6.4-1.7
			c1.4-1.2,2.3-2.6,2.6-4.2c0.3-1.7,0.4-4.5,0.4-8.3V25h9.9v25.8c0,5.9-0.3,10.1-0.8,12.5c-0.5,2.4-1.5,4.5-3,6.2
			c-1.4,1.7-3.4,3-5.8,4c-2.4,1-5.6,1.5-9.5,1.5c-4.7,0-8.3-0.5-10.7-1.6c-2.4-1.1-4.3-2.5-5.8-4.2c-1.4-1.7-2.3-3.5-2.8-5.5
			c-0.6-2.8-1-7-1-12.5V25z"/>
		<path class="st0" d="M50.2,74.2V25H65l8.9,33.5L82.8,25h14.9v49.2h-9.2V35.5l-9.8,38.7h-9.6l-9.7-38.7v38.7H50.2z"/>
	</g>
</g>
</svg>
