<?xml version="1.0" encoding="utf-8"?>
<!-- Generator: Adobe Illustrator 25.2.1, SVG Export Plug-In . SVG Version: 6.00 Build 0)  -->
<svg version="1.1" id="Layer_1" xmlns="http://www.w3.org/2000/svg" xmlns:xlink="http://www.w3.org/1999/xlink" x="0px" y="0px"
	 viewBox="0 0 100 100" style="enable-background:new 0 0 100 100;" xml:space="preserve">
<g>
	<path d="M16.7,32.3v36.3h4.6c3.3,0,6.2-0.3,8.7-1.1c2.5-0.8,4.6-1.9,6.3-3.5c1.7-1.5,3-3.4,3.8-5.7c0.8-2.3,1.2-4.9,1.2-7.9
		c0-3-0.4-5.7-1.2-7.9c-0.8-2.3-2.1-4.2-3.8-5.7c-1.7-1.5-3.7-2.7-6.3-3.4c-2.5-0.7-5.4-1.1-8.7-1.1L16.7,32.3L16.7,32.3z M20,25.8
		c4.6,0,8.6,0.6,12.2,1.6c3.5,1.1,6.5,2.6,8.8,4.7c2.4,2.1,4.2,4.7,5.4,7.7c1.2,3,1.8,6.6,1.8,10.6c0,4-0.6,7.5-1.8,10.6
		c-1.2,3-3,5.6-5.4,7.7c-2.4,2.1-5.3,3.7-8.8,4.7c-3.5,1-7.6,1.5-12.2,1.5H9.8V25.8H20L20,25.8z M51.6,74.2V25H58v21h25.8V25h6.4
		v49.2h-6.4V51.7H58v22.5H51.6L51.6,74.2z"/>
</g>
</svg>
