<?xml version="1.0" encoding="utf-8"?>
<!-- Generator: Adobe Illustrator 25.2.1, SVG Export Plug-In . SVG Version: 6.00 Build 0)  -->
<svg version="1.1" id="Layer_1" xmlns="http://www.w3.org/2000/svg" xmlns:xlink="http://www.w3.org/1999/xlink" x="0px" y="0px"
	 viewBox="0 0 100 100" style="enable-background:new 0 0 100 100;" xml:space="preserve">
<style type="text/css">
	.st0{fill:#010101;}
</style>
<g>
	<path class="st0" d="M-15.2,75V25h15.1L9,59.1L18,25h15.1v50h-9.4V35.6L13.8,75H4.1l-9.9-39.4V75H-15.2z"/>
	<path class="st0" d="M52.6,75V33.5H37.8V25h39.7v8.5H62.7V75H52.6z"/>
	<path class="st0" d="M115.2,75h-9.6V56.5c0-3.9-0.2-6.4-0.6-7.6c-0.4-1.1-1.1-2-2-2.7c-0.9-0.6-2-1-3.3-1c-1.7,0-3.1,0.5-4.5,1.4
		c-1.3,0.9-2.2,2.1-2.7,3.6c-0.5,1.5-0.7,4.3-0.7,8.3V75h-9.6V38.8h8.9v5.3C94.2,40,98.2,38,103,38c2.1,0,4,0.4,5.8,1.1
		c1.8,0.8,3.1,1.7,4,2.9c0.9,1.2,1.5,2.5,1.9,4c0.4,1.5,0.5,3.6,0.5,6.4V75z"/>
</g>
</svg>
