<?xml version="1.0" encoding="utf-8"?>
<!-- Generator: Adobe Illustrator 25.2.1, SVG Export Plug-In . SVG Version: 6.00 Build 0)  -->
<svg version="1.1" id="Layer_1" xmlns="http://www.w3.org/2000/svg" xmlns:xlink="http://www.w3.org/1999/xlink" x="0px" y="0px"
	 viewBox="0 0 100 100" style="enable-background:new 0 0 100 100;" xml:space="preserve">
<style type="text/css">
	.st0{stroke:#000000;stroke-miterlimit:10;}
</style>
<g>
	<rect x="13.4" y="25.6" class="st0" width="72.7" height="4.6"/>
	<rect x="44" y="34" transform="matrix(-1.836970e-16 1 -1 -1.836970e-16 86.8856 -13.1256)" class="st0" width="12" height="5.8"/>
	<g>
		<g>
			<g>
				<path d="M17.3,41.1C25.3,53,33.4,64.9,41.5,76.8c1.8,2.6,6.1,0.1,4.3-2.5c-8.1-11.9-16.2-23.8-24.3-35.7
					C19.8,36,15.4,38.4,17.3,41.1L17.3,41.1z"/>
			</g>
		</g>
		<g>
			<g>
				<path d="M17.5,42c2.6,2.5,5.7,4.2,9.1,5.5c3.4,1.3,7.2,2.4,10.9,2.3c3.8-0.1,7.7-1.2,11.3-2.1c3.5-0.9,7.1-2,10.3-3.8
					c1.4-0.8,2.6-1.7,4-2.5c1.6-1,3.4-1.5,5.3-1.8c3.3-0.5,6.1,0.6,8.1,3.2c2,2.6,3,6,3.8,9.2c0.7,2.9,1.5,6.7-0.5,9.3
					c-1.4,1.8-4.2,2.9-6.4,3.9c-2.9,1.3-5.5,2.9-7.4,5.5c-0.8,1.1-0.2,2.8,0.9,3.4c1.3,0.7,2.6,0.2,3.4-0.9c1.3-1.8,3.9-2.9,6-3.9
					c2.4-1.1,5-2.3,6.8-4.3c2.5-2.7,3.1-6.3,2.8-9.8c-0.4-3.9-1.5-7.8-3.1-11.4c-1.4-3.2-3.7-6.3-6.9-7.9c-3.6-1.9-7.8-1.6-11.6-0.5
					c-3.7,1.1-6.6,3.9-10.1,5.4c-3.3,1.4-6.9,2.2-10.4,3c-2.1,0.5-4.2,1-6.4,1.1c-2.2,0-4.3-0.6-6.4-1.1c-3.7-1-7.3-2.5-10-5.2
					C18.7,36.2,15.2,39.7,17.5,42L17.5,42z"/>
			</g>
		</g>
	</g>
</g>
</svg>
