<?xml version="1.0" encoding="utf-8"?>
<!-- Generator: Adobe Illustrator 25.2.1, SVG Export Plug-In . SVG Version: 6.00 Build 0)  -->
<svg version="1.1" id="Layer_1" xmlns="http://www.w3.org/2000/svg" xmlns:xlink="http://www.w3.org/1999/xlink" x="0px" y="0px"
	 viewBox="0 0 100 100" style="enable-background:new 0 0 100 100;" xml:space="preserve">
<style type="text/css">
	.st0{fill:#010101;}
</style>
<g>
	<path class="st0" d="M82.8,63.7h-9.4L70.7,75H60l-3-11.3H43.1l-3,11.3H29.1l-2.7-11.3h-9.2v-8.8h7.1l-2.1-9h-5V37h2.9l-2.9-12h10.3
		l2.6,12H41l3.2-12h12l3,12H70l2.6-12h10.2l-2.9,12h2.9v8.8h-5l-2.2,9h7.2V63.7z M38.7,45.8h-6.6l2,9h2.2L38.7,45.8z M54.6,54.8
		l-2.4-9h-4.4l-2.4,9H54.6z M68.1,45.8h-6.7l2.3,9h2.4L68.1,45.8z"/>
</g>
</svg>
