<?xml version="1.0" encoding="utf-8"?>
<!-- Generator: Adobe Illustrator 25.2.1, SVG Export Plug-In . SVG Version: 6.00 Build 0)  -->
<svg version="1.1" id="Layer_1" xmlns="http://www.w3.org/2000/svg" xmlns:xlink="http://www.w3.org/1999/xlink" x="0px" y="0px"
	 viewBox="0 0 100 100" style="enable-background:new 0 0 100 100;" xml:space="preserve">
<style type="text/css">
	.st0{fill:#010101;}
</style>
<g>
	<g>
		<path class="st0" d="M40,69l-11.6,7.2l-3.1,0.1c-5.7,0-10-1.2-12.9-3.7c-2.9-2.4-4.4-6-4.4-10.7c0-3,0.4-5.7,1.2-8
			c0.9-2.6,2.3-4.9,4.3-6.9c-1-1.2-1.9-2.5-2.7-4c-0.8-1.5-1.2-2.8-1.2-3.7c0-1.2,0.4-2.9,1.3-5.2c0.9-2.3,1.7-3.9,2.6-4.9
			c0.7-0.9,1.7-1.6,3.1-2.1c1.4-0.5,2.9-0.8,4.5-0.8c2.2,0,4.3,0.5,6.2,1.5c1.9,1,3.5,2.5,4.8,4.4c-0.6,0-1.2,0-1.7,0
			c-0.5,0-1.1-0.1-1.7-0.1c-4.2,0-7.6,0.3-10.2,1c-2.6,0.7-3.9,1.6-3.9,2.7c0,0.9,0.4,1.7,1.3,2.6c1.1,1,2.8,2,5.1,3.1
			c2.8-1.2,5-2.1,6.5-2.6c1.5-0.5,3.9-1.1,7-1.8c-0.6,1.8-1,3.1-1.3,3.9c-0.4,0.9-0.9,2.1-1.6,3.6c-6.2,1.5-11.1,3.5-14.7,6.1
			c-3.6,2.6-5.4,5.4-5.4,8.4c0,2.8,1.6,4.9,4.7,6.4c3.6,1.7,9.2,2.6,16.8,2.6h0.7c1.2,0,2.1,0,2.6,0c0.6,0,1.6-0.1,3-0.3L40,69z"/>
		<path class="st0" d="M43.3,63.5v-8.6h8.6v8.6H43.3z"/>
		<path class="st0" d="M81.7,55.2c0,1.2-0.7,2.9-2.1,4.9c-1.4,2-3.1,3.8-5,5.3c-2.1,1.7-3.9,2.5-5.4,2.5c-1.8,0-3.7-0.5-5.8-1.5
			c-1.8-0.9-4.6-2.6-8.4-5.3l1.3-1.9c1.8,1.2,3.3,2,4.4,2.5c1.1,0.4,2.3,0.6,3.6,0.6c1.4,0,2.8-0.4,4.2-1.2c1.4-0.8,3.3-2.3,5.7-4.4
			c3.4-3,5.1-5.3,5.1-7c0-0.8-0.3-1.9-1-3.2c-0.7-1.5-1.6-2.8-2.7-3.8l1.7-8.3c1.4,1.4,2.5,3.1,3.2,4.9c0.8,1.9,1.1,4,1.1,6.3V55.2z
			"/>
		<path class="st0" d="M84.7,63.5v-8.6h8.6v8.6H84.7z"/>
	</g>
</g>
</svg>
