<?xml version="1.0" encoding="utf-8"?>
<!-- Generator: Adobe Illustrator 25.2.1, SVG Export Plug-In . SVG Version: 6.00 Build 0)  -->
<svg version="1.1" id="Layer_1" xmlns="http://www.w3.org/2000/svg" xmlns:xlink="http://www.w3.org/1999/xlink" x="0px" y="0px"
	 viewBox="0 0 100 100" style="enable-background:new 0 0 100 100;" xml:space="preserve">
<style type="text/css">
	.st0{fill:#010101;}
</style>
<g>
	<g>
		<path class="st0" d="M14,27.1h19.3c3.8,0,6.7,0.2,8.6,0.5c1.9,0.3,3.6,1,5,2c1.5,1,2.7,2.4,3.7,4c1,1.7,1.5,3.6,1.5,5.7
			c0,2.3-0.6,4.3-1.8,6.2c-1.2,1.9-2.9,3.3-5,4.3c2.9,0.9,5.2,2.3,6.8,4.4c1.6,2.1,2.4,4.5,2.4,7.3c0,2.2-0.5,4.3-1.5,6.4
			c-1,2.1-2.4,3.7-4.2,5c-1.8,1.2-4,2-6.5,2.3c-1.6,0.2-5.6,0.3-11.8,0.3H14V27.1z M23.8,35.1v11.2h6.4c3.8,0,6.2-0.1,7.1-0.2
			c1.7-0.2,3-0.8,3.9-1.7c1-1,1.4-2.2,1.4-3.8c0-1.5-0.4-2.7-1.2-3.6c-0.8-0.9-2.1-1.5-3.7-1.7c-1-0.1-3.7-0.2-8.3-0.2H23.8z
			 M23.8,54.4v12.9h9c3.5,0,5.7-0.1,6.7-0.3c1.5-0.3,2.6-0.9,3.5-1.9c0.9-1,1.4-2.4,1.4-4.1c0-1.5-0.4-2.7-1.1-3.7
			c-0.7-1-1.7-1.7-3.1-2.2c-1.3-0.5-4.2-0.7-8.7-0.7H23.8z"/>
		<path class="st0" d="M56.1,76.3l12-50h7l-12.1,50H56.1z"/>
		<path class="st0" d="M78.1,75.4v-9.3h9.3v9.3H78.1z"/>
	</g>
</g>
</svg>
