<?xml version="1.0" encoding="utf-8"?>
<!-- Generator: Adobe Illustrator 25.2.1, SVG Export Plug-In . SVG Version: 6.00 Build 0)  -->
<svg version="1.1" id="Layer_1" xmlns="http://www.w3.org/2000/svg" xmlns:xlink="http://www.w3.org/1999/xlink" x="0px" y="0px"
	 viewBox="0 0 100 100" style="enable-background:new 0 0 100 100;" xml:space="preserve">
<style type="text/css">
	.st0{fill:#010101;}
</style>
<g>
	<path class="st0" d="M69.2,63.6c-1.7,1.7-4.2,3.1-7.5,4.4c-2.9,1.1-5.9,1.8-8.8,1.9V75h-4.1v-5.2c-7.4-0.8-12.6-4.2-15.5-10.3
		c-1.6-3.4-2.4-7-2.4-10.9c0-4.2,0.8-7.9,2.5-11.1c1.8-3.4,4.5-6.1,8-7.9c2.1-1.1,4.5-1.7,7.4-2V25h4.1v2.6
		c8.9,0.4,14.2,4.4,15.8,12l-8.2,1.5c-1.1-3.8-3.6-5.9-7.6-6.4v28c1.2-0.1,2.3-0.5,3.5-0.9c1.8-0.7,3.2-1.5,4.5-2.5v-5.2h-3.9v-6.9
		h12.2V63.6z M48.8,62.7V34.9c-6.3,1-9.4,5.5-9.4,13.4c0,4.8,1.1,8.5,3.2,10.9C44.3,61.1,46.3,62.3,48.8,62.7z"/>
</g>
</svg>
