<?xml version="1.0" encoding="utf-8"?>
<!-- Generator: Adobe Illustrator 25.2.1, SVG Export Plug-In . SVG Version: 6.00 Build 0)  -->
<svg version="1.1" id="Layer_1" xmlns="http://www.w3.org/2000/svg" xmlns:xlink="http://www.w3.org/1999/xlink" x="0px" y="0px"
	 viewBox="0 0 100 100" style="enable-background:new 0 0 100 100;" xml:space="preserve">
<style type="text/css">
	.st0{fill:#010101;}
</style>
<g>
	<g>
		<path class="st0" d="M14,58.4l9.5-0.9c0.6,3.2,1.7,5.5,3.5,7c1.7,1.5,4.1,2.2,7.1,2.2c3.1,0,5.5-0.7,7.1-2
			c1.6-1.3,2.4-2.9,2.4-4.7c0-1.1-0.3-2.1-1-2.9c-0.7-0.8-1.8-1.5-3.5-2.1c-1.1-0.4-3.7-1.1-7.8-2.1c-5.2-1.3-8.9-2.9-11-4.8
			c-3-2.7-4.4-5.9-4.4-9.7c0-2.5,0.7-4.8,2.1-6.9c1.4-2.1,3.4-3.8,6-4.9c2.6-1.1,5.8-1.7,9.5-1.7c6.1,0,10.6,1.3,13.7,4
			c3.1,2.7,4.7,6.2,4.8,10.6l-9.8,0.4c-0.4-2.5-1.3-4.3-2.7-5.4c-1.4-1.1-3.4-1.6-6.2-1.6c-2.8,0-5.1,0.6-6.7,1.7
			c-1,0.7-1.5,1.7-1.5,3c0,1.1,0.5,2.1,1.5,2.9c1.2,1,4.2,2.1,9,3.2c4.7,1.1,8.3,2.3,10.5,3.5c2.3,1.2,4.1,2.8,5.3,4.9
			c1.3,2.1,1.9,4.6,1.9,7.7c0,2.8-0.8,5.4-2.3,7.8c-1.5,2.4-3.7,4.2-6.5,5.4c-2.8,1.2-6.3,1.8-10.5,1.8c-6.1,0-10.8-1.4-14.1-4.2
			C16.6,67.9,14.6,63.8,14,58.4z"/>
		<path class="st0" d="M54.8,75l12-50h7L61.6,75H54.8z"/>
		<path class="st0" d="M76.8,74.1v-9.3H86v9.3H76.8z"/>
	</g>
</g>
</svg>
