<?xml version="1.0" encoding="utf-8"?>
<!-- Generator: Adobe Illustrator 25.2.1, SVG Export Plug-In . SVG Version: 6.00 Build 0)  -->
<svg version="1.1" id="Layer_1" xmlns="http://www.w3.org/2000/svg" xmlns:xlink="http://www.w3.org/1999/xlink" x="0px" y="0px"
	 viewBox="0 0 100 100" style="enable-background:new 0 0 100 100;" xml:space="preserve">
<style type="text/css">
	.st0{fill:#010101;}
</style>
<g>
	<g>
		<path class="st0" d="M72.6,47.5h-3.4c-2.2,7.1-9.1,10.6-20.8,10.6h-6.6V75H31.8V47.5h-4.5V43h4.5v-2.9h-4.5v-4.5h4.5V25H48
			c5.8,0,10.3,0.6,13.5,1.9c4.1,1.7,6.8,4.6,7.9,8.7h3.2v4.5h-2.6c0,0.5,0,0.9,0,1.3c0,0.7,0,1.3,0,1.6h2.6V47.5z M57,35.6
			c-2-1.5-5.4-2.2-10.2-2.2h-4.9v2.2H57z M59.7,41.5c0-0.5,0-0.9-0.1-1.4H41.9V43h17.7C59.7,42.6,59.7,42.1,59.7,41.5z M56.8,47.5
			H41.9v2.1h5.5C51.6,49.7,54.7,49,56.8,47.5z"/>
	</g>
</g>
</svg>
