<?xml version="1.0" encoding="utf-8"?>
<!-- Generator: Adobe Illustrator 25.2.1, SVG Export Plug-In . SVG Version: 6.00 Build 0)  -->
<svg version="1.1" id="Layer_1" xmlns="http://www.w3.org/2000/svg" xmlns:xlink="http://www.w3.org/1999/xlink" x="0px" y="0px"
	 viewBox="0 0 100 100" style="enable-background:new 0 0 100 100;" xml:space="preserve">
<style type="text/css">
	.st0{fill:#010101;}
</style>
<g>
	<path class="st0" d="M64.5,64.8l3.6,7.8c-1.3,0.7-2.7,1.2-4.3,1.7c-1.6,0.4-3.2,0.6-4.8,0.6c-2,0-4.6-0.5-7.9-1.4
		c-3.3-0.9-5.7-1.4-7.3-1.4c-2.7,0-5.4,1-8.2,2.9L32,67c2.5-1.8,4.3-3.7,5.4-5.7c1.1-2,1.6-3.9,1.6-5.8c0-0.6,0-1.2-0.1-1.9H32v-7.3
		h5.2c-0.9-2.6-1.4-5.2-1.4-7.9c0-2.4,0.7-4.7,2-6.9c1.3-2.2,3.2-3.8,5.6-5c2.4-1.1,5-1.7,7.8-1.7c4.3,0,7.8,1.1,10.4,3.3
		c2.6,2.2,4.1,5.3,4.7,9.4L57.3,39c-0.4-2.4-1.2-4-2.3-5.1c-1.1-1-2.5-1.6-4.1-1.6c-1.8,0-3.2,0.6-4.4,1.8c-1.2,1.2-1.7,2.7-1.7,4.4
		c0,0.9,0.2,2.1,0.5,3.7c0.3,1.5,0.7,2.9,1.2,4.2h10.3v7.3h-8.8c0.1,0.5,0.1,1,0.1,1.5c0,1.7-0.3,3.3-1,4.8c-0.7,1.5-2,3.4-4.1,5.8
		c1.2-0.6,2.7-0.9,4.6-0.9c0.8,0,1.5,0,2.1,0.1c0.3,0,1.2,0.3,2.7,0.6c2.7,0.7,4.5,1,5.4,1C59.5,66.6,61.7,66,64.5,64.8z"/>
</g>
</svg>
