<?xml version="1.0" encoding="utf-8"?>
<!-- Generator: Adobe Illustrator 25.2.1, SVG Export Plug-In . SVG Version: 6.00 Build 0)  -->
<svg version="1.1" id="Layer_1" xmlns="http://www.w3.org/2000/svg" xmlns:xlink="http://www.w3.org/1999/xlink" x="0px" y="0px"
	 viewBox="0 0 100 100" style="enable-background:new 0 0 100 100;" xml:space="preserve">
<g>
	<g>
		<path d="M30.8,75V25h16.2c6.1,0,10.1,0.3,12,0.8c2.9,0.8,5.3,2.4,7.2,4.9c1.9,2.5,2.9,5.8,2.9,9.7c0,3.1-0.6,5.7-1.7,7.7
			c-1.1,2.1-2.5,3.7-4.2,4.9c-1.7,1.2-3.5,2-5.2,2.4c-2.4,0.5-5.9,0.7-10.5,0.7h-6.6V75H30.8z M40.9,33.5v14.2h5.5
			c4,0,6.6-0.3,8-0.8c1.3-0.5,2.4-1.3,3.2-2.5c0.8-1.1,1.1-2.4,1.1-3.9c0-1.8-0.5-3.3-1.6-4.5c-1.1-1.2-2.4-1.9-4.1-2.2
			c-1.2-0.2-3.6-0.3-7.3-0.3H40.9z"/>
	</g>
</g>
</svg>
