<?xml version="1.0" encoding="utf-8"?>
<!-- Generator: Adobe Illustrator 25.2.1, SVG Export Plug-In . SVG Version: 6.00 Build 0)  -->
<svg version="1.1" id="Layer_1" xmlns="http://www.w3.org/2000/svg" xmlns:xlink="http://www.w3.org/1999/xlink" x="0px" y="0px"
	 viewBox="0 0 100 100" style="enable-background:new 0 0 100 100;" xml:space="preserve">
<style type="text/css">
	.st0{fill:#010101;}
</style>
<g>
	<path class="st0" d="M42.1,58.5c0,4.1-0.2,6.8-0.7,8.1c-0.5,1.3-1.5,2.6-3.3,4c-3.7,2.9-9,4.4-15.9,4.4c-5.7,0-10.2-0.9-13.2-2.8
		c-3.1-1.9-4.6-4.6-4.6-8.1c0-3,0.5-5.8,1.4-8.3c1.1-2.7,3-6.1,5.9-10.1l1.9,1.3c-1.9,2.7-3.2,5-4,6.9c-0.8,1.9-1.2,3.7-1.2,5.5
		c0,2.5,1.3,4.5,3.9,5.9c2.6,1.4,6.3,2.1,11,2.1c4.3,0,8-0.8,11.3-2.5c3.3-1.7,4.9-3.5,4.9-5.6c0-0.3,0-0.5,0-0.8
		c0-0.3-0.1-0.6-0.2-1c-2.2,0.2-3.8,0.3-4.8,0.3c-2.3,0-4-0.6-5.3-1.7c-1.3-1.1-1.9-2.7-1.9-4.8c0-3,0.8-6.1,2.3-9.1
		c1.7-3.2,3.5-4.9,5.5-4.9c2.2,0,4,1.6,5.3,4.8c1.2,2.9,1.8,6.6,1.8,10.9V58.5z M40.8,28.2l-3.4,6.3L33,32l-2.5,4.9l-5.8-3.2l3.2-6
		l4.6,2.3l2.6-5L40.8,28.2z M36.5,49.2c-0.6-1.3-1.1-2.2-1.7-2.7c-0.6-0.5-1.3-0.8-2.1-0.8c-0.5,0-0.9,0.2-1.2,0.5
		c-0.3,0.3-0.4,0.7-0.4,1.3c0,1.4,0.9,2,2.6,2c0.6,0,1.1,0,1.4,0C35.3,49.4,35.8,49.3,36.5,49.2z"/>
	<path class="st0" d="M50.8,66.8v-8.7h8.7v8.7H50.8z"/>
	<path class="st0" d="M95.5,58.4c0,1.3-0.7,2.9-2.2,5c-1.4,2.1-3.1,3.9-5.1,5.4c-2.1,1.7-4,2.5-5.5,2.5c-1.8,0-3.8-0.5-5.9-1.5
		c-1.8-0.9-4.7-2.7-8.5-5.3l1.3-1.9c1.9,1.2,3.4,2.1,4.5,2.5c1.1,0.4,2.4,0.7,3.7,0.7c1.4,0,2.8-0.4,4.3-1.2
		c1.4-0.8,3.4-2.3,5.8-4.5c3.4-3.1,5.1-5.4,5.1-7.1c0-0.8-0.3-1.9-1-3.3c-0.7-1.5-1.7-2.8-2.7-3.8l1.7-8.4c1.4,1.4,2.5,3.1,3.3,5
		c0.8,1.9,1.1,4,1.1,6.4V58.4z"/>
</g>
</svg>
