<?xml version="1.0" encoding="utf-8"?>
<!-- Generator: Adobe Illustrator 25.2.1, SVG Export Plug-In . SVG Version: 6.00 Build 0)  -->
<svg version="1.1" id="Layer_1" xmlns="http://www.w3.org/2000/svg" xmlns:xlink="http://www.w3.org/1999/xlink" x="0px" y="0px"
	 viewBox="0 0 100 100" style="enable-background:new 0 0 100 100;" xml:space="preserve">
<style type="text/css">
	.st0{fill-rule:evenodd;clip-rule:evenodd;}
	.st1{fill:#010101;}
</style>
<g>
	<polygon class="st0" points="72.9,39.4 72.9,35.4 61,35.4 57.1,35.4 57.1,39.4 57.1,47.6 57.1,51.6 57.1,57.6 54.5,57.6 54.5,61.6 
		57.1,61.6 57.1,64.6 61,64.6 61,61.6 66.5,61.6 66.5,57.6 61,57.6 61,51.6 72.9,51.6 72.9,47.6 61,47.6 61,39.4 72.9,39.4 	"/>
	<g>
		<path class="st1" d="M27.1,64.6V35.4h12.4c3.1,0,5.4,0.3,6.8,0.8c1.4,0.5,2.5,1.5,3.4,2.8c0.8,1.3,1.3,2.9,1.3,4.6
			c0,2.2-0.6,4-1.9,5.4c-1.3,1.4-3.2,2.3-5.8,2.7c1.3,0.7,2.3,1.6,3.1,2.4c0.8,0.9,1.9,2.5,3.3,4.7l3.6,5.7h-7L42,58.2
			c-1.5-2.3-2.5-3.7-3.1-4.3c-0.6-0.6-1.1-1-1.8-1.2c-0.6-0.2-1.6-0.3-3-0.3h-1.2v12.2H27.1z M32.9,47.8h4.4c2.8,0,4.6-0.1,5.3-0.4
			c0.7-0.2,1.3-0.6,1.6-1.2c0.4-0.6,0.6-1.3,0.6-2.2c0-1-0.3-1.8-0.8-2.4c-0.5-0.6-1.3-1-2.2-1.1c-0.5-0.1-1.9-0.1-4.3-0.1h-4.6
			V47.8z"/>
	</g>
</g>
</svg>
