<?xml version="1.0" encoding="utf-8"?>
<!-- Generator: Adobe Illustrator 25.2.1, SVG Export Plug-In . SVG Version: 6.00 Build 0)  -->
<svg version="1.1" id="Layer_1" xmlns="http://www.w3.org/2000/svg" xmlns:xlink="http://www.w3.org/1999/xlink" x="0px" y="0px"
	 viewBox="0 0 100 100" style="enable-background:new 0 0 100 100;" xml:space="preserve">
<style type="text/css">
	.st0{fill:#010101;}
</style>
<g>
	<g>
		<path class="st0" d="M11.1,74.2V25H32c5.3,0,9.1,0.4,11.5,1.3c2.4,0.9,4.3,2.5,5.7,4.7c1.4,2.3,2.1,4.8,2.1,7.8
			c0,3.7-1.1,6.7-3.3,9.1c-2.2,2.4-5.4,3.9-9.7,4.5c2.1,1.3,3.9,2.6,5.3,4.1c1.4,1.5,3.3,4.2,5.7,8l6,9.6H43.5l-7.2-10.7
			c-2.5-3.8-4.3-6.2-5.2-7.2c-0.9-1-1.9-1.7-3-2c-1.1-0.4-2.7-0.6-5-0.6h-2v20.5H11.1z M21,45.8h7.3c4.8,0,7.7-0.2,8.9-0.6
			c1.2-0.4,2.1-1.1,2.8-2.1c0.7-1,1-2.2,1-3.7c0-1.7-0.4-3-1.3-4c-0.9-1-2.1-1.7-3.7-1.9c-0.8-0.1-3.2-0.2-7.2-0.2H21V45.8z"/>
		<path class="st0" d="M55.6,64l9.5-1.4c0.4,1.8,1.2,3.2,2.4,4.2c1.2,1,3,1.4,5.2,1.4c2.4,0,4.3-0.4,5.5-1.3
			c0.8-0.6,1.2-1.5,1.2-2.5c0-0.7-0.2-1.3-0.7-1.8c-0.5-0.4-1.5-0.9-3.2-1.2c-7.6-1.7-12.4-3.2-14.5-4.6c-2.8-1.9-4.2-4.6-4.2-8
			c0-3.1,1.2-5.7,3.7-7.8c2.4-2.1,6.2-3.2,11.3-3.2c4.9,0,8.5,0.8,10.9,2.4c2.4,1.6,4,3.9,4.9,7l-8.9,1.6c-0.4-1.4-1.1-2.4-2.2-3.2
			c-1.1-0.7-2.6-1.1-4.5-1.1c-2.5,0-4.3,0.3-5.3,1c-0.7,0.5-1.1,1.1-1.1,1.9c0,0.7,0.3,1.2,0.9,1.7c0.8,0.6,3.8,1.5,8.8,2.7
			c5,1.1,8.5,2.5,10.5,4.2c2,1.7,3,4,3,7c0,3.3-1.4,6.1-4.1,8.4C82.1,73.8,78,75,72.7,75c-4.9,0-8.7-1-11.5-3
			C58.3,70.1,56.5,67.4,55.6,64z"/>
	</g>
</g>
</svg>
