<?xml version="1.0" encoding="utf-8"?>
<!-- Generator: Adobe Illustrator 25.2.1, SVG Export Plug-In . SVG Version: 6.00 Build 0)  -->
<svg version="1.1" id="Layer_1" xmlns="http://www.w3.org/2000/svg" xmlns:xlink="http://www.w3.org/1999/xlink" x="0px" y="0px"
	 viewBox="0 0 100 100" style="enable-background:new 0 0 100 100;" xml:space="preserve">
<style type="text/css">
	.st0{fill:#010101;}
</style>
<g>
	<g>
		<path class="st0" d="M34.4,75V25h16.2c6.1,0,10.1,0.3,12,0.8c2.9,0.8,5.3,2.4,7.2,4.9c1.9,2.5,2.9,5.8,2.9,9.7
			c0,3.1-0.6,5.6-1.7,7.7c-1.1,2.1-2.5,3.7-4.2,4.9c-1.7,1.2-3.5,2-5.2,2.4c-2.4,0.5-5.9,0.7-10.5,0.7h-6.6V75H34.4z M44.5,33.5
			v14.2H50c4,0,6.6-0.3,8-0.8c1.3-0.5,2.4-1.3,3.2-2.5c0.8-1.1,1.1-2.4,1.1-3.9c0-1.8-0.5-3.3-1.6-4.5c-1.1-1.2-2.4-1.9-4.1-2.2
			c-1.2-0.2-3.6-0.3-7.3-0.3H44.5z"/>
	</g>
	<rect x="27.3" y="60.3" class="st0" width="38.8" height="4.2"/>
</g>
</svg>
