<?xml version="1.0" encoding="utf-8"?>
<!-- Generator: Adobe Illustrator 25.2.1, SVG Export Plug-In . SVG Version: 6.00 Build 0)  -->
<svg version="1.1" id="Layer_1" xmlns="http://www.w3.org/2000/svg" xmlns:xlink="http://www.w3.org/1999/xlink" x="0px" y="0px"
	 viewBox="0 0 100 100" style="enable-background:new 0 0 100 100;" xml:space="preserve">
<style type="text/css">
	.st0{fill:#010101;}
</style>
<g>
	<path class="st0" d="M5.7,25h18.2c4.1,0,7.2,0.3,9.4,0.9c2.9,0.9,5.4,2.4,7.4,4.5c2.1,2.2,3.6,4.8,4.7,8c1.1,3.1,1.6,7,1.6,11.6
		c0,4-0.5,7.5-1.5,10.5c-1.2,3.6-3,6.5-5.3,8.7c-1.7,1.7-4,3-7,3.9c-2.2,0.7-5.1,1-8.8,1H5.7V25z M15.7,33.3v32.6h7.4
		c2.8,0,4.8-0.2,6-0.5c1.6-0.4,2.9-1.1,4-2c1.1-1,1.9-2.5,2.6-4.7c0.7-2.2,1-5.2,1-9c0-3.8-0.3-6.7-1-8.8c-0.7-2-1.6-3.6-2.8-4.8
		c-1.2-1.1-2.7-1.9-4.6-2.3c-1.4-0.3-4.1-0.5-8.2-0.5H15.7z"/>
	<path class="st0" d="M59.5,74.2V25h9.4v17.7c2.9-3.3,6.4-5,10.3-5c4.3,0,7.9,1.6,10.8,4.7c2.8,3.1,4.3,7.7,4.3,13.5
		c0,6.1-1.4,10.8-4.3,14.1C87,73.4,83.5,75,79.4,75c-2,0-4-0.5-6-1.5c-2-1-3.7-2.5-5.1-4.5v5.2H59.5z M68.8,55.6
		c0,3.7,0.6,6.4,1.7,8.2c1.6,2.5,3.8,3.8,6.5,3.8c2.1,0,3.9-0.9,5.3-2.7c1.5-1.8,2.2-4.6,2.2-8.4c0-4.1-0.7-7-2.2-8.8
		C80.9,45.9,79,45,76.7,45c-2.3,0-4.1,0.9-5.6,2.6C69.6,49.4,68.8,52,68.8,55.6z"/>
</g>
</svg>
