<?xml version="1.0" encoding="utf-8"?>
<!-- Generator: Adobe Illustrator 25.2.1, SVG Export Plug-In . SVG Version: 6.00 Build 0)  -->
<svg version="1.1" id="Layer_1" xmlns="http://www.w3.org/2000/svg" xmlns:xlink="http://www.w3.org/1999/xlink" x="0px" y="0px"
	 viewBox="0 0 100 100" style="enable-background:new 0 0 100 100;" xml:space="preserve">
<style type="text/css">
	.st0{fill:#010101;}
</style>
<g>
	<path class="st0" d="M51.9,56c-3.4,0-5.8-0.2-7.2-0.5c-1.4-0.3-4.1-1.2-8-2.6c-1.8,1.3-3.4,2.1-4.7,2.5c-1.4,0.4-3.5,0.6-6.3,0.6
		h-7.5c0,7.1-2.3,12.2-6.8,15.3c-3.9,2.7-9.9,4.1-17.8,4.1c-7.4,0-13.1-1.4-17.1-4.1c-4-2.7-6-6.5-6-11.5c0-4.2,0.6-8.1,1.9-11.6
		c1.4-3.9,4.2-8.9,8.2-15.1l2.7,1.9c-3,5.2-5,8.9-5.9,11.2c-0.9,2.3-1.4,4.7-1.4,7.2c0,3.2,1.7,5.8,5.2,7.9c3.4,2,7.9,3,13.5,3
		c5.5,0,10.1-1.1,13.9-3.2c3.8-2.1,5.6-4.7,5.6-7.7c0-1.9-0.3-3.8-1-5.6C12.6,46,11.2,43,9,38.9l4-12.4c2.2,3.7,3.6,6.7,4.3,9.1
		c0.6,2.1,0.9,4.7,0.9,8h4.2c4.6,0,7.8-0.5,9.6-1.6c1.8-1.1,2.7-3,2.7-5.8c0-1.2,0.1-2.1,0.3-2.7c0.2-0.6,0.8-1.2,1.6-1.8l2.2-1.5
		c0.1,0.6,0.1,1.4,0.1,2.4c0,1,0,1.6,0,1.9c0,1.7-0.2,3.9-0.7,6.7c1.4,0.5,2.8,0.9,4.2,1.3c1.4,0.4,2.8,0.7,4,0.8
		c0-1.1-0.4-2.4-1.1-4c-0.8-1.6-1.1-2.6-1.1-3.1c0-0.4,0.1-0.7,0.2-1.1c0.1-0.3,0.4-0.8,0.8-1.3l4.3-6.1c0.8,1.9,1.4,3.7,1.8,5.2
		c0.4,1.6,0.5,3.5,0.5,5.9V56z"/>
	<path class="st0" d="M64.8,69.5V56.6h12.9v12.9H64.8z"/>
	<path class="st0" d="M130.9,57.1c0,1.9-1.1,4.3-3.2,7.4c-2.1,3.1-4.6,5.7-7.5,8c-3.2,2.5-5.9,3.8-8.2,3.8c-2.7,0-5.6-0.8-8.7-2.3
		c-2.7-1.3-6.9-3.9-12.6-7.9l1.9-2.8c2.7,1.8,5,3.1,6.6,3.7c1.7,0.6,3.5,1,5.4,1c2.1,0,4.2-0.6,6.3-1.8c2.1-1.2,5-3.4,8.6-6.6
		c5.1-4.5,7.6-8,7.6-10.4c0-1.2-0.5-2.8-1.5-4.8c-1.1-2.3-2.4-4.1-4-5.6l2.6-12.4c2.1,2.1,3.7,4.6,4.8,7.4c1.1,2.8,1.7,5.9,1.7,9.5
		V57.1z"/>
</g>
</svg>
