<?xml version="1.0" encoding="utf-8"?>
<!-- Generator: Adobe Illustrator 25.2.1, SVG Export Plug-In . SVG Version: 6.00 Build 0)  -->
<svg version="1.1" id="Layer_1" xmlns="http://www.w3.org/2000/svg" xmlns:xlink="http://www.w3.org/1999/xlink" x="0px" y="0px"
	 viewBox="0 0 100 100" style="enable-background:new 0 0 100 100;" xml:space="preserve">
<style type="text/css">
	.st0{fill:#010101;}
</style>
<g>
	<path class="st0" d="M11.2,58.4l9.5-0.9c0.6,3.2,1.7,5.5,3.5,7c1.7,1.5,4.1,2.2,7.1,2.2c3.1,0,5.5-0.7,7.1-2
		c1.6-1.3,2.4-2.9,2.4-4.7c0-1.1-0.3-2.1-1-2.9c-0.7-0.8-1.8-1.5-3.5-2.1c-1.1-0.4-3.7-1.1-7.8-2.1c-5.2-1.3-8.9-2.9-11-4.8
		c-3-2.7-4.4-5.9-4.4-9.7c0-2.5,0.7-4.8,2.1-6.9c1.4-2.1,3.4-3.8,6-4.9c2.6-1.1,5.8-1.7,9.5-1.7c6.1,0,10.6,1.3,13.7,4
		c3.1,2.7,4.7,6.2,4.8,10.6l-9.8,0.4c-0.4-2.5-1.3-4.3-2.7-5.4c-1.4-1.1-3.4-1.6-6.2-1.6c-2.8,0-5.1,0.6-6.7,1.7
		c-1,0.7-1.5,1.7-1.5,3c0,1.1,0.5,2.1,1.5,2.9c1.2,1,4.2,2.1,9,3.2c4.7,1.1,8.3,2.3,10.5,3.5c2.3,1.2,4.1,2.8,5.3,4.9
		c1.3,2.1,1.9,4.6,1.9,7.7c0,2.8-0.8,5.4-2.3,7.8c-1.5,2.4-3.7,4.2-6.5,5.4c-2.8,1.2-6.3,1.8-10.5,1.8c-6.1,0-10.8-1.4-14.1-4.2
		S11.8,63.8,11.2,58.4z"/>
	<path class="st0" d="M66.2,25.8v17.8c3-3.5,6.6-5.2,10.7-5.2c2.1,0,4.1,0.4,5.8,1.2c1.7,0.8,3,1.8,3.9,3c0.9,1.2,1.5,2.6,1.8,4.1
		c0.3,1.5,0.5,3.8,0.5,7v20.5h-9.3V55.7c0-3.7-0.2-6-0.5-7c-0.4-1-1-1.8-1.9-2.4c-0.9-0.6-2-0.9-3.3-0.9c-1.5,0-2.9,0.4-4.1,1.1
		c-1.2,0.7-2.1,1.9-2.7,3.4c-0.6,1.5-0.8,3.7-0.8,6.7v17.5h-9.3V25.8H66.2z"/>
</g>
</svg>
