<?xml version="1.0" encoding="utf-8"?>
<!-- Generator: Adobe Illustrator 25.2.1, SVG Export Plug-In . SVG Version: 6.00 Build 0)  -->
<svg version="1.1" id="Layer_1" xmlns="http://www.w3.org/2000/svg" xmlns:xlink="http://www.w3.org/1999/xlink" x="0px" y="0px"
	 viewBox="0 0 100 100" style="enable-background:new 0 0 100 100;" xml:space="preserve">
<style type="text/css">
	.st0{fill:#010101;}
</style>
<g>
	<path class="st0" d="M73.7,64.3l8.3,1.4c-1.1,3-2.7,5.3-5,6.9c-2.3,1.6-5.2,2.4-8.6,2.4c-5.4,0-9.5-1.8-12.1-5.3
		c-2.1-2.9-3.1-6.5-3.1-10.8c0-5.2,1.4-9.3,4.1-12.2c2.7-2.9,6.1-4.4,10.3-4.4c4.7,0,8.3,1.5,11,4.6c2.7,3.1,4,7.8,3.9,14.1H61.6
		c0.1,2.5,0.7,4.4,2,5.7c1.3,1.4,2.9,2.1,4.8,2.1c1.3,0,2.4-0.4,3.3-1.1C72.6,67,73.2,65.9,73.7,64.3z M74.1,55.9
		c-0.1-2.4-0.7-4.2-1.9-5.5c-1.2-1.2-2.6-1.9-4.3-1.9c-1.8,0-3.3,0.7-4.5,2c-1.2,1.3-1.8,3.1-1.7,5.4H74.1z"/>
	<g>
		<path class="st0" d="M17.6,75V25h10.2v41.5h25.3V75H17.6z"/>
	</g>
</g>
</svg>
