<?xml version="1.0" encoding="utf-8"?>
<!-- Generator: Adobe Illustrator 25.2.1, SVG Export Plug-In . SVG Version: 6.00 Build 0)  -->
<svg version="1.1" id="Layer_1" xmlns="http://www.w3.org/2000/svg" xmlns:xlink="http://www.w3.org/1999/xlink" x="0px" y="0px"
	 viewBox="0 0 100 100" style="enable-background:new 0 0 100 100;" xml:space="preserve">
<style type="text/css">
	.st0{fill:#010101;}
	.st1{font-family:'Geneva';}
	.st2{font-size:32.9576px;}
	.st3{letter-spacing:-3;}
</style>
<g>
	<g>
		<path class="st0" d="M725.5,690.6H776c10,0,17.4,0.4,22.4,1.2c4.9,0.8,9.3,2.6,13.2,5.2c3.9,2.6,7.1,6.2,9.7,10.6
			c2.6,4.4,3.9,9.3,3.9,14.8c0,5.9-1.6,11.3-4.8,16.3c-3.2,4.9-7.5,8.6-13,11.1c7.7,2.2,13.6,6.1,17.7,11.5c4.1,5.4,6.2,11.7,6.2,19
			c0,5.7-1.3,11.3-4,16.8c-2.7,5.4-6.3,9.8-10.9,13c-4.6,3.2-10.3,5.2-17.1,6c-4.2,0.5-14.5,0.7-30.8,0.9h-43V690.6z M751,711.6
			v29.2h16.7c9.9,0,16.1-0.1,18.5-0.4c4.4-0.5,7.8-2,10.3-4.5c2.5-2.5,3.7-5.8,3.7-9.9c0-3.9-1.1-7.1-3.2-9.5
			c-2.2-2.4-5.4-3.9-9.6-4.4c-2.5-0.3-9.8-0.4-21.8-0.4H751z M751,761.9v33.8h23.6c9.2,0,15-0.3,17.5-0.8c3.8-0.7,6.9-2.4,9.3-5
			c2.4-2.7,3.6-6.2,3.6-10.7c0-3.8-0.9-7-2.8-9.6c-1.8-2.6-4.5-4.6-8-5.8c-3.5-1.2-11-1.8-22.6-1.8H751z"/>
		<path class="st0" d="M835.3,819.1l31.3-130.6h18.2l-31.6,130.6H835.3z"/>
		<path class="st0" d="M892.9,816.9v-24.2h24.2v24.2H892.9z"/>
	</g>
</g>
<g>
	<path class="st0" d="M3,45.6l4.9-0.5c0.3,1.6,0.9,2.9,1.8,3.6c0.9,0.8,2.1,1.2,3.7,1.2c1.6,0,2.8-0.3,3.7-1
		c0.8-0.7,1.2-1.5,1.2-2.4c0-0.6-0.2-1.1-0.5-1.5c-0.3-0.4-1-0.8-1.8-1.1c-0.6-0.2-1.9-0.6-4-1.1c-2.7-0.7-4.6-1.5-5.7-2.5
		c-1.5-1.4-2.3-3-2.3-5c0-1.3,0.4-2.5,1.1-3.6c0.7-1.1,1.8-2,3.1-2.5c1.4-0.6,3-0.9,4.9-0.9c3.1,0,5.5,0.7,7.1,2.1
		c1.6,1.4,2.4,3.2,2.5,5.5l-5,0.2c-0.2-1.3-0.7-2.2-1.4-2.8c-0.7-0.6-1.8-0.8-3.2-0.8c-1.5,0-2.6,0.3-3.4,0.9
		C9,33.8,8.7,34.3,8.7,35c0,0.6,0.2,1.1,0.7,1.5c0.6,0.5,2.2,1.1,4.6,1.7c2.5,0.6,4.3,1.2,5.4,1.8c1.2,0.6,2.1,1.5,2.8,2.5
		c0.7,1.1,1,2.4,1,4c0,1.4-0.4,2.8-1.2,4c-0.8,1.2-1.9,2.2-3.4,2.8c-1.5,0.6-3.3,0.9-5.4,0.9c-3.2,0-5.6-0.7-7.3-2.2
		S3.3,48.4,3,45.6z"/>
	<path class="st0" d="M31.4,28.8v9.2c1.5-1.8,3.4-2.7,5.5-2.7c1.1,0,2.1,0.2,3,0.6c0.9,0.4,1.6,0.9,2,1.6c0.4,0.6,0.8,1.3,0.9,2.1
		c0.2,0.8,0.2,2,0.2,3.6v10.6h-4.8v-9.6c0-1.9-0.1-3.1-0.3-3.6c-0.2-0.5-0.5-0.9-1-1.2c-0.5-0.3-1-0.5-1.7-0.5
		c-0.8,0-1.5,0.2-2.1,0.6c-0.6,0.4-1.1,1-1.4,1.7c-0.3,0.8-0.4,1.9-0.4,3.4v9.1h-4.8v-25H31.4z"/>
	<path class="st0" d="M49.2,46.3l4.9-0.5c0.3,1.6,0.9,2.9,1.8,3.6c0.9,0.8,2.1,1.2,3.7,1.2c1.6,0,2.8-0.3,3.7-1
		c0.8-0.7,1.2-1.5,1.2-2.4c0-0.6-0.2-1.1-0.5-1.5c-0.3-0.4-1-0.8-1.8-1.1c-0.6-0.2-1.9-0.6-4-1.1c-2.7-0.7-4.6-1.5-5.7-2.5
		c-1.5-1.4-2.3-3-2.3-5c0-1.3,0.4-2.5,1.1-3.6c0.7-1.1,1.8-2,3.1-2.5c1.4-0.6,3-0.9,4.9-0.9c3.1,0,5.5,0.7,7.1,2.1
		c1.6,1.4,2.4,3.2,2.5,5.5l-5,0.2c-0.2-1.3-0.7-2.2-1.4-2.8c-0.7-0.6-1.8-0.8-3.2-0.8c-1.5,0-2.6,0.3-3.4,0.9
		c-0.5,0.4-0.8,0.9-0.8,1.6c0,0.6,0.2,1.1,0.7,1.5c0.6,0.5,2.2,1.1,4.6,1.7c2.5,0.6,4.3,1.2,5.4,1.8c1.2,0.6,2.1,1.5,2.8,2.5
		c0.7,1.1,1,2.4,1,4c0,1.4-0.4,2.8-1.2,4c-0.8,1.2-1.9,2.2-3.4,2.8c-1.5,0.6-3.3,0.9-5.4,0.9c-3.2,0-5.6-0.7-7.3-2.2
		C50.5,51.2,49.5,49.1,49.2,46.3z"/>
	<path class="st0" d="M44,53.7v-4.8h4.8v4.8H44z"/>
	<text transform="matrix(1 0 0 1 69.4915 53.9668)" class="st1 st2 st3">O</text>
	<path class="st0" d="M92.2,53.7v-4.8H97v4.8H92.2z"/>
</g>
</svg>
