<?xml version="1.0" encoding="utf-8"?>
<!-- Generator: Adobe Illustrator 25.2.1, SVG Export Plug-In . SVG Version: 6.00 Build 0)  -->
<svg version="1.1" id="Layer_1" xmlns="http://www.w3.org/2000/svg" xmlns:xlink="http://www.w3.org/1999/xlink" x="0px" y="0px"
	 viewBox="0 0 100 100" style="enable-background:new 0 0 100 100;" xml:space="preserve">
<style type="text/css">
	.st0{fill:#010101;}
</style>
<g>
	<path class="st0" d="M28.2,76.3v-50h21.2c5.3,0,9.2,0.4,11.6,1.3c2.4,0.9,4.4,2.5,5.8,4.8c1.5,2.3,2.2,4.9,2.2,7.9
		c0,3.8-1.1,6.9-3.3,9.3c-2.2,2.4-5.5,4-9.9,4.6c2.2,1.3,4,2.7,5.4,4.2c1.4,1.5,3.3,4.2,5.7,8.1l6.1,9.8H61.1l-7.3-10.9
		c-2.6-3.9-4.4-6.3-5.3-7.3c-1-1-2-1.7-3-2.1c-1.1-0.4-2.8-0.6-5.1-0.6h-2v20.9H28.2z M38.3,47.4h7.5c4.8,0,7.9-0.2,9.1-0.6
		c1.2-0.4,2.1-1.1,2.8-2.1c0.7-1,1-2.3,1-3.8c0-1.7-0.4-3-1.3-4.1c-0.9-1-2.2-1.7-3.8-2c-0.8-0.1-3.3-0.2-7.4-0.2h-7.9V47.4z"/>
</g>
</svg>
