<?xml version="1.0" encoding="utf-8"?>
<!-- Generator: Adobe Illustrator 25.2.1, SVG Export Plug-In . SVG Version: 6.00 Build 0)  -->
<svg version="1.1" id="Layer_1" xmlns="http://www.w3.org/2000/svg" xmlns:xlink="http://www.w3.org/1999/xlink" x="0px" y="0px"
	 viewBox="0 0 100 100" style="enable-background:new 0 0 100 100;" xml:space="preserve">
<style type="text/css">
	.st0{fill:#010101;}
</style>
<g>
	<g>
		<path class="st0" d="M725.5,690.6H776c10,0,17.4,0.4,22.4,1.2c4.9,0.8,9.3,2.6,13.2,5.2c3.9,2.6,7.1,6.2,9.7,10.6
			c2.6,4.4,3.9,9.3,3.9,14.8c0,5.9-1.6,11.3-4.8,16.3c-3.2,4.9-7.5,8.6-13,11.1c7.7,2.2,13.6,6.1,17.7,11.5c4.1,5.4,6.2,11.7,6.2,19
			c0,5.7-1.3,11.3-4,16.8c-2.7,5.4-6.3,9.8-10.9,13c-4.6,3.2-10.3,5.2-17.1,6c-4.2,0.5-14.5,0.7-30.8,0.9h-43V690.6z M751,711.6
			v29.2h16.7c9.9,0,16.1-0.1,18.5-0.4c4.4-0.5,7.8-2,10.3-4.5c2.5-2.5,3.7-5.8,3.7-9.9c0-3.9-1.1-7.1-3.2-9.5
			c-2.2-2.4-5.4-3.9-9.6-4.4c-2.5-0.3-9.8-0.4-21.8-0.4H751z M751,761.9v33.8h23.6c9.2,0,15-0.3,17.5-0.8c3.8-0.7,6.9-2.4,9.3-5
			c2.4-2.7,3.6-6.2,3.6-10.7c0-3.8-0.9-7-2.8-9.6c-1.8-2.6-4.5-4.6-8-5.8c-3.5-1.2-11-1.8-22.6-1.8H751z"/>
		<path class="st0" d="M835.3,819.1l31.3-130.6h18.2l-31.6,130.6H835.3z"/>
		<path class="st0" d="M892.9,816.9v-24.2h24.2v24.2H892.9z"/>
	</g>
</g>
<g>
	<path class="st0" d="M-8.2,58.4l9.5-0.9c0.6,3.2,1.7,5.5,3.5,7c1.7,1.5,4.1,2.2,7.1,2.2c3.1,0,5.5-0.7,7.1-2
		c1.6-1.3,2.4-2.9,2.4-4.7c0-1.1-0.3-2.1-1-2.9c-0.7-0.8-1.8-1.5-3.5-2.1C15.7,54.7,13.1,54,9,53c-5.2-1.3-8.9-2.9-11-4.8
		c-3-2.7-4.4-5.9-4.4-9.7c0-2.5,0.7-4.8,2.1-6.9c1.4-2.1,3.4-3.8,6-4.9c2.6-1.1,5.8-1.7,9.5-1.7c6.1,0,10.6,1.3,13.7,4
		c3.1,2.7,4.7,6.2,4.8,10.6L20,40.1c-0.4-2.5-1.3-4.3-2.7-5.4c-1.4-1.1-3.4-1.6-6.2-1.6c-2.8,0-5.1,0.6-6.7,1.7
		c-1,0.7-1.5,1.7-1.5,3c0,1.1,0.5,2.1,1.5,2.9c1.2,1,4.2,2.1,9,3.2c4.7,1.1,8.3,2.3,10.5,3.5c2.3,1.2,4.1,2.8,5.3,4.9
		c1.3,2.1,1.9,4.6,1.9,7.7c0,2.8-0.8,5.4-2.3,7.8c-1.5,2.4-3.7,4.2-6.5,5.4c-2.8,1.2-6.3,1.8-10.5,1.8c-6.1,0-10.8-1.4-14.1-4.2
		C-5.6,67.9-7.6,63.8-8.2,58.4z"/>
	<path class="st0" d="M32,58.4l9.5-0.9c0.6,3.2,1.7,5.5,3.5,7c1.7,1.5,4.1,2.2,7.1,2.2c3.1,0,5.5-0.7,7.1-2c1.6-1.3,2.4-2.9,2.4-4.7
		c0-1.1-0.3-2.1-1-2.9c-0.7-0.8-1.8-1.5-3.5-2.1c-1.1-0.4-3.7-1.1-7.8-2.1c-5.2-1.3-8.9-2.9-11-4.8c-3-2.7-4.4-5.9-4.4-9.7
		c0-2.5,0.7-4.8,2.1-6.9c1.4-2.1,3.4-3.8,6-4.9c2.6-1.1,5.8-1.7,9.5-1.7c6.1,0,10.6,1.3,13.7,4c3.1,2.7,4.7,6.2,4.8,10.6l-9.8,0.4
		c-0.4-2.5-1.3-4.3-2.7-5.4c-1.4-1.1-3.4-1.6-6.2-1.6c-2.8,0-5.1,0.6-6.7,1.7c-1,0.7-1.5,1.7-1.5,3c0,1.1,0.5,2.1,1.5,2.9
		c1.2,1,4.2,2.1,9,3.2c4.7,1.1,8.3,2.3,10.5,3.5c2.3,1.2,4.1,2.8,5.3,4.9c1.3,2.1,1.9,4.6,1.9,7.7c0,2.8-0.8,5.4-2.3,7.8
		c-1.5,2.4-3.7,4.2-6.5,5.4c-2.8,1.2-6.3,1.8-10.5,1.8c-6.1,0-10.8-1.4-14.1-4.2C34.6,67.9,32.6,63.8,32,58.4z"/>
	<g>
		<path class="st0" d="M104.6,64.8l3.6,7.8c-1.3,0.7-2.7,1.2-4.3,1.7c-1.6,0.4-3.2,0.6-4.8,0.6c-2,0-4.6-0.5-7.9-1.4
			c-3.3-0.9-5.7-1.4-7.3-1.4c-2.7,0-5.4,1-8.2,2.9l-3.5-8c2.5-1.8,4.3-3.7,5.4-5.7c1.1-2,1.6-3.9,1.6-5.8c0-0.6,0-1.2-0.1-1.9h-6.9
			v-7.3h5.2c-0.9-2.6-1.4-5.2-1.4-7.9c0-2.4,0.7-4.7,2-6.9c1.3-2.2,3.2-3.8,5.6-5c2.4-1.1,5-1.7,7.8-1.7c4.3,0,7.8,1.1,10.4,3.3
			c2.6,2.2,4.1,5.3,4.7,9.4L97.4,39c-0.4-2.4-1.2-4-2.3-5.1c-1.1-1-2.5-1.6-4.1-1.6c-1.8,0-3.2,0.6-4.4,1.8
			c-1.2,1.2-1.7,2.7-1.7,4.4c0,0.9,0.2,2.1,0.5,3.7c0.3,1.5,0.7,2.9,1.2,4.2h10.3v7.3h-8.8c0.1,0.5,0.1,1,0.1,1.5
			c0,1.7-0.3,3.3-1,4.8c-0.7,1.5-2,3.4-4.1,5.8c1.2-0.6,2.7-0.9,4.6-0.9c0.8,0,1.5,0,2.1,0.1c0.3,0,1.2,0.3,2.7,0.6
			c2.7,0.7,4.5,1,5.4,1C99.6,66.6,101.9,66,104.6,64.8z"/>
	</g>
</g>
</svg>
