<?xml version="1.0" encoding="utf-8"?>
<!-- Generator: Adobe Illustrator 25.2.1, SVG Export Plug-In . SVG Version: 6.00 Build 0)  -->
<svg version="1.1" id="Layer_1" xmlns="http://www.w3.org/2000/svg" xmlns:xlink="http://www.w3.org/1999/xlink" x="0px" y="0px"
	 viewBox="0 0 100 100" style="enable-background:new 0 0 100 100;" xml:space="preserve">
<path d="M85.6,25c-4.4,0-7.8,0.9-9.9,3c-1.1,1.1-2,2.9-3,5.7c-0.3,0.7,0.4,1.5,1.2,1.3c2.2-0.4,3.9-0.7,5.1-0.9h0
	c1.9-0.3,3.6-0.4,5.1-0.4c0.2,0,0.7,0,1.2,0.1c-1.5,1-3.4,2.3-4,2.8c-2.9,2.3-5.1,4.7-6.6,7.3c-2,3.4-3,7.3-3,11.5
	c0,5,1.3,9.1,3.9,12.3v0c2.3,2.7,5.7,4.7,9.9,5.9c3.6,1,8,1.5,13.3,1.5h2.1c0.2,0,0.4-0.1,0.6-0.2l8.2-5.8c0.4-0.3,0.5-0.9,0.3-1.3
	l-0.2-0.4c-0.2-0.3-0.5-0.5-0.9-0.5h-6.7c-7.8,0-14-1.1-18.5-3.3c-5.2-2.5-7.6-6-7.6-10.8c0-3.7,1.7-6.9,5.2-9.7
	c2.8-2.3,6.9-4.2,12.1-5.9c3.5-1.1,7.8-2.1,12.9-2.9c0.4-0.1,0.7-0.4,0.8-0.8l1.3-6.1c0.1-0.6-0.3-1.2-1-1.2c-0.7,0-1.8,0.1-3.2,0.3
	c-1.3,0.2-2.3,0.2-3,0.2c-1.6,0-3.5-0.1-5.8-0.5C90.6,25.3,87.3,25,85.6,25C85.6,25,85.6,25,85.6,25z M25.2,29.7
	c-0.4,0-0.9,0.3-1.1,0.7l-3.1,7.9c-0.2,0.4-0.1,0.9,0.2,1.2c1.3,1.6,2.2,3.2,2.9,5c0,0,0,0.1,0,0.1c0.8,2.2,1.3,4.4,1.3,6.8
	c0,1.6-0.5,3.2-1.5,4.5c-1.1,1.3-2.6,2.4-4.8,3.4c0,0-0.1,0-0.1,0c-3.6,1.6-7.7,2.5-12.3,2.5c-3.9,0-6.8-0.8-8.8-2.2l0,0
	c-1.9-1.5-2.8-3.5-2.8-6.4c0-1.6,0.3-3.5,0.8-5.6h0c0.5-2,1.7-4.9,3.4-8.6c0.3-0.5,0-1.3-0.5-1.6l-1.5-0.7c-0.5-0.2-1.2,0-1.5,0.6
	c-1.4,2.9-2.3,5-2.9,6.5v0c-0.9,2.3-1.6,4.7-2.2,7c-0.5,2.4-0.8,4.7-0.8,7c0,4.4,1.7,7.9,4.8,10.1l0,0c2.9,2,6.9,2.9,12.1,2.9
	c5.7,0,10.4-1.1,14.3-3.4c3.1-1.8,5.4-4.3,7-7.4c0.7-1.1,2.4-4.8,2.6-7.4h2.9c2.3,0,4.1-0.2,5.5-0.8c0,0,0,0,0,0
	c0.7-0.3,1.3-0.7,2-1.3c0.2-0.2,0.6-0.2,0.8,0c0.9,0.6,1.7,1.1,2.6,1.4l0,0h0c1.3,0.5,2.7,0.7,4.3,0.7h2.9c0.6,0,1.1-0.6,1.1-1.2
	l-0.2-8.1c-0.1-3.2-0.3-5.6-0.9-7.5v0c-0.3-1-1-2.2-2.2-4.3c-0.2-0.3-0.6-0.5-1-0.5c-0.4,0-0.7,0.2-1,0.5l-2.5,4.2
	c-0.3,0.4-0.2,1,0.1,1.4c0.9,1,1.6,2,2.1,3v0c0.7,1.3,1,2.5,1,3.6c0,0.1,0,0.2-0.1,0.3c0,0,0,0,0-0.1c0,0.1,0,0.1-0.1,0.1l0,0
	c0,0,0,0,0,0c-0.1,0.3-0.3,0.4-0.6,0.4c-1.6,0-2.7-0.5-3.4-1.4h0c-0.7-0.9-1.4-2.5-1.9-4.9c0,0,0,0,0-0.1l-0.6-3.7
	c-0.1-0.5-0.4-0.9-0.9-1c-0.4-0.1-0.9,0.1-1.2,0.5l-1.5,2.3C38,36.7,38,37,38,37.3c0.2,0.9,0.3,1.7,0.3,2.4c0,0,0,0,0,0v0
	c0.1,0.7,0.1,1.4,0.1,2.1c0,0.5,0,0.9-0.2,1.2c-0.1,0.4-0.4,0.6-0.7,0.8l0,0c-0.4,0.3-0.9,0.5-1.6,0.6c-0.7,0.1-1.7,0.3-2.8,0.3
	h-2.9c-0.4,0-0.7-0.3-0.7-0.7c-0.1-3.1-0.3-5.8-0.9-7.9l0,0l0,0c-0.5-1.8-1.4-3.7-2.7-5.9C26,30,25.6,29.7,25.2,29.7
	C25.2,29.7,25.2,29.7,25.2,29.7z M92.8,44.6c-0.3,0-0.7,0.2-0.9,0.5l-2.8,5.3c-0.3,0.5-0.1,1.1,0.4,1.4l5.7,3.3
	c0.5,0.3,1.1,0.1,1.4-0.4l3.1-5.5c0.3-0.5,0.1-1.1-0.4-1.4l-6-3.1C93.1,44.6,92.9,44.6,92.8,44.6z M56.1,59.6c-1,0-1.8,0.8-1.8,1.8
	v6.3c0,1,0.8,1.8,1.8,1.8h6.3c1,0,1.9-0.8,1.9-1.8v-6.3c0-1-0.8-1.8-1.9-1.8H56.1z"/>
</svg>
