<?xml version="1.0" encoding="utf-8"?>
<!-- Generator: Adobe Illustrator 25.2.1, SVG Export Plug-In . SVG Version: 6.00 Build 0)  -->
<svg version="1.1" id="Layer_1" xmlns="http://www.w3.org/2000/svg" xmlns:xlink="http://www.w3.org/1999/xlink" x="0px" y="0px"
	 viewBox="0 0 100 100" style="enable-background:new 0 0 100 100;" xml:space="preserve">
<style type="text/css">
	.st0{fill:#010101;}
</style>
<g>
	<g>
		<path class="st0" d="M725.5,690.6H776c10,0,17.4,0.4,22.4,1.2c4.9,0.8,9.3,2.6,13.2,5.2c3.9,2.6,7.1,6.2,9.7,10.6
			c2.6,4.4,3.9,9.3,3.9,14.8c0,5.9-1.6,11.3-4.8,16.3c-3.2,4.9-7.5,8.6-13,11.1c7.7,2.2,13.6,6.1,17.7,11.5c4.1,5.4,6.2,11.7,6.2,19
			c0,5.7-1.3,11.3-4,16.8c-2.7,5.4-6.3,9.8-10.9,13c-4.6,3.2-10.3,5.2-17.1,6c-4.2,0.5-14.5,0.7-30.8,0.9h-43V690.6z M751,711.6
			v29.2h16.7c9.9,0,16.1-0.1,18.5-0.4c4.4-0.5,7.8-2,10.3-4.5c2.5-2.5,3.7-5.8,3.7-9.9c0-3.9-1.1-7.1-3.2-9.5
			c-2.2-2.4-5.4-3.9-9.6-4.4c-2.5-0.3-9.8-0.4-21.8-0.4H751z M751,761.9v33.8h23.6c9.2,0,15-0.3,17.5-0.8c3.8-0.7,6.9-2.4,9.3-5
			c2.4-2.7,3.6-6.2,3.6-10.7c0-3.8-0.9-7-2.8-9.6c-1.8-2.6-4.5-4.6-8-5.8c-3.5-1.2-11-1.8-22.6-1.8H751z"/>
		<path class="st0" d="M835.3,819.1l31.3-130.6h18.2l-31.6,130.6H835.3z"/>
		<path class="st0" d="M892.9,816.9v-24.2h24.2v24.2H892.9z"/>
	</g>
</g>
<g>
	<path class="st0" d="M52.1,65.4H19.9c-3.1,0-5.2-0.1-6.2-0.2c-1-0.1-2.1-0.4-3.3-0.8c-2.1-0.7-3.8-2.2-5.2-4.4
		c-1.4-2.2-2-4.7-2-7.4c0-1.1,0.1-2,0.2-2.8C3.5,49,3.7,48,4,46.9c0.4-1.7,0.9-3.1,1.5-4.2c0.5-1.1,1.5-2.7,2.8-4.6l2.2,1.5
		c-1.1,2-1.9,3.6-2.2,4.8c-0.4,1.2-0.6,2.3-0.6,3.5c0,1.5,0.5,2.8,1.4,3.9c0.9,1.2,2.2,1.9,3.7,2.3c0.9,0.2,2.1,0.4,3.5,0.5
		c1.4,0.1,3,0.2,4.6,0.2h27.8c-0.7-1.9-1.3-3.3-1.8-4.1c-0.5-1-1.4-2.2-2.6-3.7l3.5-8.9c1.9,2.7,3.2,5.3,3.8,7.5
		c0.5,2,0.8,4.9,0.8,8.8V65.4z M38.6,28.9l-4.2,7.8l-5.5-3.1l-3.1,6.1l-7.1-3.9l4-7.5l5.7,2.8l3.2-6.2L38.6,28.9z"/>
	<path class="st0" d="M59.3,75v-9.1h9.1V75H59.3z"/>
	<path class="st0" d="M96.8,64.9H79.4c-1.7,0-3-0.4-3.9-1.1c-1.1-0.9-1.7-2.3-1.7-4.3c0-1.1,0.1-2.3,0.2-3.7c0.1-1.3,0.3-2.6,0.5-4
		l1.5-0.1c0.2,0.9,0.7,1.6,1.4,2c0.7,0.4,1.6,0.6,2.6,0.6h13.2c-0.6-3.8-1.6-6.8-3.1-9c-1.2-1.9-2.9-3.5-5-4.8l2.8-12
		c3.3,2.5,5.7,5.7,7.1,9.6c1.3,3.6,1.9,8.4,1.9,14.4V64.9z"/>
</g>
</svg>
