<?xml version="1.0" encoding="utf-8"?>
<!-- Generator: Adobe Illustrator 25.2.1, SVG Export Plug-In . SVG Version: 6.00 Build 0)  -->
<svg version="1.1" id="Layer_1" xmlns="http://www.w3.org/2000/svg" xmlns:xlink="http://www.w3.org/1999/xlink" x="0px" y="0px"
	 viewBox="0 0 100 100" style="enable-background:new 0 0 100 100;" xml:space="preserve">
<style type="text/css">
	.st0{fill:#060507;}
</style>
<g>
	<path class="st0" d="M41.5,75c-0.2-0.1-0.4-0.2-0.7-0.2c0-8.2,0-16.4,0-24.7c-3.2,1.1-6.3,2.2-9.5,3.4c0-1.3,0-2.5,0-3.7
		c0-0.2,0.4-0.4,0.6-0.5c2.6-0.9,5.1-1.9,7.8-2.8c0.9-0.3,1.2-0.5,1.2-1.6c0-0.4,0-0.5-0.1-1c-3.2,1.1-6.2,2.3-9.5,3.4
		c0-1.4,0-2.6,0-3.8c0-0.2,0.4-0.4,0.6-0.5c2.7-1,5.5-1.9,8.2-2.9c0.4-0.1,0.7-0.3,0.7-0.8c0-4.8,0-9.5,0-14.3c1.7,0,3.3,0,5,0
		c0,0.6,0.1,1.2,0.1,1.7c0,3.4,0,6.8,0,10.2c0,0.3,0,0.6,0,1c5.1-1.9,10.2-3.7,15.3-5.5c0,1.3,0,2.4,0,3.6c0,0.2-0.4,0.6-0.7,0.7
		c-4.3,1.6-8.7,3.2-13,4.7c-1.8,0.6-1.8,0.6-1.5,2.7c5-1.8,10.1-3.6,15.2-5.5c0,1.3,0,2.5,0,3.7c0,0.2-0.5,0.5-0.8,0.6
		c-4.4,1.6-8.7,3.1-13.1,4.7c-1.7,0.6-1.4,0.4-1.4,2c0,6.3,0,12.7,0,19c0,0.3,0,0.7,0,1c6.2-0.1,17.5-6.7,17.5-19.6
		c1.6,0,3.3,0,5.1,0c-0.2,1.5-0.2,2.9-0.5,4.4C66,65.4,57.3,73.5,46.2,74.9c-0.2,0-0.3,0.1-0.5,0.1C44.3,75,42.9,75,41.5,75L41.5,75
		z"/>
</g>
</svg>
