<?xml version="1.0" encoding="utf-8"?>
<!-- Generator: Adobe Illustrator 25.2.1, SVG Export Plug-In . SVG Version: 6.00 Build 0)  -->
<svg version="1.1" id="Layer_1" xmlns="http://www.w3.org/2000/svg" xmlns:xlink="http://www.w3.org/1999/xlink" x="0px" y="0px"
	 viewBox="0 0 100 100" style="enable-background:new 0 0 100 100;" xml:space="preserve">
<style type="text/css">
	.st0{fill:#010101;}
</style>
<g>
	<path class="st0" d="M30.8,72.4c-0.2,0.6-0.4,1.1-0.7,1.4c-0.2,0.2-0.6,0.4-1,0.5l-6.4,2c0.4-0.7,0.7-1.2,1-1.5
		c0.3-0.3,0.8-0.5,1.5-0.8c-0.6-0.4-1-0.7-1.2-1c-0.2-0.3-0.4-0.6-0.4-0.9c0-0.3,0.1-0.5,0.2-0.9c0.2-0.3,0.4-0.6,0.6-1
		c1.3-1.7,2.6-2.6,3.8-2.6c0.4,0,0.7,0.1,0.9,0.4c0.2,0.2,0.3,0.6,0.3,1c0,0.3,0,0.6-0.1,0.8c-0.1,0.2-0.3,0.6-0.5,1
		c-1-0.5-1.7-0.7-2-0.7c-0.4,0-0.7,0.1-1.1,0.3c-0.2,0.1-0.5,0.3-0.7,0.5c0,0.3,0.5,0.7,1.4,1.2c0.9,0.5,1.6,0.8,2,0.8
		C28.9,72.8,29.6,72.7,30.8,72.4z M30.9,53.6c0,1.8-0.2,3.4-0.6,4.8c-0.4,1.5-1.2,3.4-2.4,5.9l-1.8-0.7c0.5-2.5,0.7-4.6,0.7-6.2
		c0-1.2-0.1-3-0.3-5.3c-0.2-2.3-0.4-4.6-0.7-6.9c-0.3-2.3-0.8-5-1.5-8.2c-0.2-1.1-0.4-1.9-0.4-2.3c0-0.6,0.3-1.7,0.9-3.1
		c0.6-1.5,1.5-3.3,2.6-5.3l1.8,10.5c0.7,4,1.1,7.4,1.4,10.4C30.8,49.4,30.9,51.5,30.9,53.6z"/>
	<path class="st0" d="M41.4,70.9v-8.3h8.3v8.3H41.4z"/>
	<path class="st0" d="M78.7,62.2H65.3c-1.3,0-2.3-0.3-3-0.8c-0.8-0.7-1.3-1.8-1.3-3.3c0-0.9,0-1.8,0.1-2.8c0.1-1,0.2-2,0.4-3.1
		l1.1-0.1c0.2,0.7,0.5,1.2,1.1,1.5c0.5,0.3,1.2,0.5,2,0.5h10.2c-0.5-2.9-1.2-5.2-2.4-7c-0.9-1.4-2.2-2.7-3.9-3.7l2.1-9.2
		c2.6,1.9,4.4,4.4,5.5,7.4c1,2.8,1.5,6.5,1.5,11.1V62.2z"/>
</g>
</svg>
