<?xml version="1.0" encoding="utf-8"?>
<!-- Generator: Adobe Illustrator 25.2.1, SVG Export Plug-In . SVG Version: 6.00 Build 0)  -->
<svg version="1.1" id="Layer_1" xmlns="http://www.w3.org/2000/svg" xmlns:xlink="http://www.w3.org/1999/xlink" x="0px" y="0px"
	 viewBox="0 0 100 100" style="enable-background:new 0 0 100 100;" xml:space="preserve">
<style type="text/css">
	.st0{fill:#010101;}
</style>
<g>
	<g>
		<path class="st0" d="M725.5,690.6H776c10,0,17.4,0.4,22.4,1.2c4.9,0.8,9.3,2.6,13.2,5.2c3.9,2.6,7.1,6.2,9.7,10.6
			c2.6,4.4,3.9,9.3,3.9,14.8c0,5.9-1.6,11.3-4.8,16.3c-3.2,4.9-7.5,8.6-13,11.1c7.7,2.2,13.6,6.1,17.7,11.5c4.1,5.4,6.2,11.7,6.2,19
			c0,5.7-1.3,11.3-4,16.8c-2.7,5.4-6.3,9.8-10.9,13c-4.6,3.2-10.3,5.2-17.1,6c-4.2,0.5-14.5,0.7-30.8,0.9h-43V690.6z M751,711.6
			v29.2h16.7c9.9,0,16.1-0.1,18.5-0.4c4.4-0.5,7.8-2,10.3-4.5c2.5-2.5,3.7-5.8,3.7-9.9c0-3.9-1.1-7.1-3.2-9.5
			c-2.2-2.4-5.4-3.9-9.6-4.4c-2.5-0.3-9.8-0.4-21.8-0.4H751z M751,761.9v33.8h23.6c9.2,0,15-0.3,17.5-0.8c3.8-0.7,6.9-2.4,9.3-5
			c2.4-2.7,3.6-6.2,3.6-10.7c0-3.8-0.9-7-2.8-9.6c-1.8-2.6-4.5-4.6-8-5.8c-3.5-1.2-11-1.8-22.6-1.8H751z"/>
		<path class="st0" d="M835.3,819.1l31.3-130.6h18.2l-31.6,130.6H835.3z"/>
		<path class="st0" d="M892.9,816.9v-24.2h24.2v24.2H892.9z"/>
	</g>
</g>
<g>
	<g>
		<path class="st0" d="M30.4,58.4l9.5-0.9c0.6,3.2,1.7,5.5,3.5,7c1.7,1.5,4.1,2.2,7.1,2.2c3.1,0,5.5-0.7,7.1-2
			c1.6-1.3,2.4-2.9,2.4-4.7c0-1.1-0.3-2.1-1-2.9c-0.7-0.8-1.8-1.5-3.5-2.1c-1.1-0.4-3.7-1.1-7.8-2.1c-5.2-1.3-8.9-2.9-11-4.8
			c-3-2.7-4.4-5.9-4.4-9.7c0-2.5,0.7-4.8,2.1-6.9c1.4-2.1,3.4-3.8,6-4.9c2.6-1.1,5.8-1.7,9.5-1.7c6.1,0,10.6,1.3,13.7,4
			c3.1,2.7,4.7,6.2,4.8,10.6l-9.8,0.4c-0.4-2.5-1.3-4.3-2.7-5.4c-1.4-1.1-3.4-1.6-6.2-1.6c-2.8,0-5.1,0.6-6.7,1.7
			c-1,0.7-1.5,1.7-1.5,3c0,1.1,0.5,2.1,1.5,2.9c1.2,1,4.2,2.1,9,3.2c4.7,1.1,8.3,2.3,10.5,3.5c2.3,1.2,4.1,2.8,5.3,4.9
			c1.3,2.1,1.9,4.6,1.9,7.7c0,2.8-0.8,5.4-2.3,7.8c-1.5,2.4-3.7,4.2-6.5,5.4C58,74.4,54.5,75,50.3,75c-6.1,0-10.8-1.4-14.1-4.2
			C33,67.9,31,63.8,30.4,58.4z"/>
		<path class="st0" d="M85.4,25.8v17.8c3-3.5,6.6-5.2,10.7-5.2c2.1,0,4.1,0.4,5.8,1.2c1.7,0.8,3,1.8,3.9,3c0.9,1.2,1.5,2.6,1.8,4.1
			c0.3,1.5,0.5,3.8,0.5,7v20.5h-9.3V55.7c0-3.7-0.2-6-0.5-7c-0.4-1-1-1.8-1.9-2.4c-0.9-0.6-2-0.9-3.3-0.9c-1.5,0-2.9,0.4-4.1,1.1
			c-1.2,0.7-2.1,1.9-2.7,3.4c-0.6,1.5-0.8,3.7-0.8,6.7v17.5h-9.3V25.8H85.4z"/>
	</g>
	<path class="st0" d="M-12.5,25h9.9v26.6c0,4.2,0.1,7,0.4,8.2c0.4,2,1.4,3.6,3,4.8c1.6,1.2,3.8,1.8,6.6,1.8c2.8,0,4.9-0.6,6.4-1.7
		c1.4-1.2,2.3-2.6,2.6-4.2c0.3-1.7,0.4-4.5,0.4-8.3V25h9.9v25.8c0,5.9-0.3,10.1-0.8,12.5c-0.5,2.4-1.5,4.5-3,6.2
		c-1.4,1.7-3.4,3-5.8,4c-2.4,1-5.6,1.5-9.5,1.5C3,75-0.6,74.5-3,73.4c-2.4-1.1-4.3-2.5-5.8-4.2c-1.4-1.7-2.3-3.5-2.8-5.5
		c-0.6-2.8-1-7-1-12.5V25z"/>
</g>
</svg>
