<?xml version="1.0" encoding="utf-8"?>
<!-- Generator: Adobe Illustrator 25.2.1, SVG Export Plug-In . SVG Version: 6.00 Build 0)  -->
<svg version="1.1" id="Layer_1" xmlns="http://www.w3.org/2000/svg" xmlns:xlink="http://www.w3.org/1999/xlink" x="0px" y="0px"
	 viewBox="0 0 100 100" style="enable-background:new 0 0 100 100;" xml:space="preserve">
<style type="text/css">
	.st0{fill:#010101;}
</style>
<g>
	<g>
		<path class="st0" d="M725.5,690.6H776c10,0,17.4,0.4,22.4,1.2c4.9,0.8,9.3,2.6,13.2,5.2c3.9,2.6,7.1,6.2,9.7,10.6
			c2.6,4.4,3.9,9.3,3.9,14.8c0,5.9-1.6,11.3-4.8,16.3c-3.2,4.9-7.5,8.6-13,11.1c7.7,2.2,13.6,6.1,17.7,11.5c4.1,5.4,6.2,11.7,6.2,19
			c0,5.7-1.3,11.3-4,16.8c-2.7,5.4-6.3,9.8-10.9,13c-4.6,3.2-10.3,5.2-17.1,6c-4.2,0.5-14.5,0.7-30.8,0.9h-43V690.6z M751,711.6
			v29.2h16.7c9.9,0,16.1-0.1,18.5-0.4c4.4-0.5,7.8-2,10.3-4.5c2.5-2.5,3.7-5.8,3.7-9.9c0-3.9-1.1-7.1-3.2-9.5
			c-2.2-2.4-5.4-3.9-9.6-4.4c-2.5-0.3-9.8-0.4-21.8-0.4H751z M751,761.9v33.8h23.6c9.2,0,15-0.3,17.5-0.8c3.8-0.7,6.9-2.4,9.3-5
			c2.4-2.7,3.6-6.2,3.6-10.7c0-3.8-0.9-7-2.8-9.6c-1.8-2.6-4.5-4.6-8-5.8c-3.5-1.2-11-1.8-22.6-1.8H751z"/>
		<path class="st0" d="M835.3,819.1l31.3-130.6h18.2l-31.6,130.6H835.3z"/>
		<path class="st0" d="M892.9,816.9v-24.2h24.2v24.2H892.9z"/>
	</g>
</g>
<g>
	<path class="st0" d="M71.4,59.9H41v0.2c0,0,0,0,0,0.1c0,0,0,0,0,0.1c0,2.2,1.1,3.9,3.2,5.1c1.8,1,3.8,1.5,6.3,1.5
		c5.8,0,10.7-1.3,14.8-4l4.9,8.2c-2.4,1.4-4.8,2.4-7.1,2.9c-3.1,0.8-7.3,1.2-12.5,1.2c-5.4,0-9.9-1.1-13.3-3.2
		c-4-2.5-6.1-6.2-6.1-11.2c0-0.1,0-0.2,0-0.3v-0.5h-2.6v-7.2h4.9c2.1-2.9,6.5-5.2,13.3-7H28.6v-7.2h30.8c0-0.2,0-0.4,0-0.7
		c0-1.7-1-3-3-3.8c-1.5-0.6-3.2-0.9-5.2-0.9c-4.6,0-8.9,1.1-12.8,3.4l-5.5-6.7c5.4-3.2,11.4-4.7,18.2-4.7c4.9,0,8.9,1,12,2.9
		c3.7,2.3,5.6,5.6,5.6,10.1v0c0,0,0,0.1,0,0.1c0,0,0,0.1,0,0.1v0.4h2.7v7.2h-5.6c-1.6,1.6-4,3.1-7.1,4.3c-0.7,0.3-3.5,1.2-8.5,2.7
		h21.2V59.9z"/>
</g>
</svg>
