<?xml version="1.0" encoding="utf-8"?>
<!-- Generator: Adobe Illustrator 25.2.1, SVG Export Plug-In . SVG Version: 6.00 Build 0)  -->
<svg version="1.1" id="Layer_1" xmlns="http://www.w3.org/2000/svg" xmlns:xlink="http://www.w3.org/1999/xlink" x="0px" y="0px"
	 viewBox="0 0 100 100" style="enable-background:new 0 0 100 100;" xml:space="preserve">
<style type="text/css">
	.st0{fill:#010101;}
	.st1{fill:none;}
	.st2{clip-path:url(#SVGID_2_);}
</style>
<g>
	<g>
		<path class="st0" d="M725.5,690.6H776c10,0,17.4,0.4,22.4,1.2c4.9,0.8,9.3,2.6,13.2,5.2c3.9,2.6,7.1,6.2,9.7,10.6
			c2.6,4.4,3.9,9.3,3.9,14.8c0,5.9-1.6,11.3-4.8,16.3c-3.2,4.9-7.5,8.6-13,11.1c7.7,2.2,13.6,6.1,17.7,11.5c4.1,5.4,6.2,11.7,6.2,19
			c0,5.7-1.3,11.3-4,16.8c-2.7,5.4-6.3,9.8-10.9,13c-4.6,3.2-10.3,5.2-17.1,6c-4.2,0.5-14.5,0.7-30.8,0.9h-43V690.6z M751,711.6
			v29.2h16.7c9.9,0,16.1-0.1,18.5-0.4c4.4-0.5,7.8-2,10.3-4.5c2.5-2.5,3.7-5.8,3.7-9.9c0-3.9-1.1-7.1-3.2-9.5
			c-2.2-2.4-5.4-3.9-9.6-4.4c-2.5-0.3-9.8-0.4-21.8-0.4H751z M751,761.9v33.8h23.6c9.2,0,15-0.3,17.5-0.8c3.8-0.7,6.9-2.4,9.3-5
			c2.4-2.7,3.6-6.2,3.6-10.7c0-3.8-0.9-7-2.8-9.6c-1.8-2.6-4.5-4.6-8-5.8c-3.5-1.2-11-1.8-22.6-1.8H751z"/>
		<path class="st0" d="M835.3,819.1l31.3-130.6h18.2l-31.6,130.6H835.3z"/>
		<path class="st0" d="M892.9,816.9v-24.2h24.2v24.2H892.9z"/>
	</g>
</g>
<g>
	<rect x="30.7" y="29.2" class="st1" width="38.7" height="41.7"/>
	<g>
		<defs>
			<rect id="SVGID_1_" x="23.6" y="27.4" width="47.7" height="50"/>
		</defs>
		<clipPath id="SVGID_2_">
			<use xlink:href="#SVGID_1_"  style="overflow:visible;"/>
		</clipPath>
		<g class="st2">
			<rect x="36.2" y="22.4" transform="matrix(0.866 -0.5 0.5 0.866 -13.2785 25.9259)" class="st0" width="11.1" height="30.6"/>
			<rect x="44.1" y="19.6" transform="matrix(0.866 0.5 -0.5 0.866 32.695 -17.8348)" class="st0" width="11.1" height="65.1"/>
		</g>
	</g>
	<path class="st0" d="M16.7,57.6l9.5,3c-1.5,5.3-3.9,9.2-7.2,11.8c-3.4,2.6-7.7,3.8-12.8,3.8c-6.4,0-11.7-2.2-15.8-6.6
		c-4.1-4.4-6.2-10.4-6.2-18c0-8,2.1-14.3,6.2-18.7c4.2-4.5,9.6-6.7,16.4-6.7c5.9,0,10.7,1.7,14.4,5.2c2.2,2.1,3.8,5,4.9,8.9
		l-9.7,2.3c-0.6-2.5-1.8-4.5-3.6-5.9c-1.8-1.5-4-2.2-6.6-2.2c-3.6,0-6.5,1.3-8.7,3.9c-2.2,2.6-3.3,6.7-3.3,12.5
		c0,6.1,1.1,10.5,3.3,13.1c2.2,2.6,5.1,3.9,8.6,3.9c2.6,0,4.8-0.8,6.7-2.5C14.5,63.7,15.9,61.1,16.7,57.6z"/>
	<g>
		<path class="st0" d="M71.4,27.3h11.9V34c4.3-5.2,9.3-7.8,15.2-7.8c3.1,0,5.8,0.6,8.1,1.9c2.3,1.3,4.2,3.2,5.7,5.8
			c2.1-2.6,4.5-4.6,7-5.8c2.5-1.3,5.1-1.9,8-1.9c3.6,0,6.6,0.7,9.1,2.2s4.3,3.6,5.6,6.4c0.9,2.1,1.3,5.5,1.3,10.1v31.3h-12.9V48.2
			c0-4.8-0.4-8-1.3-9.4c-1.2-1.8-3-2.8-5.5-2.8c-1.8,0-3.5,0.6-5.1,1.7c-1.6,1.1-2.7,2.7-3.5,4.9c-0.7,2.1-1.1,5.5-1.1,10.1v23.5
			h-12.9V49.4c0-4.8-0.2-7.8-0.7-9.2c-0.5-1.4-1.2-2.4-2.1-3.1c-1-0.7-2.3-1-3.9-1c-2,0-3.8,0.5-5.4,1.6c-1.6,1.1-2.7,2.6-3.4,4.6
			c-0.7,2-1,5.4-1,10.1v23.8H71.4V27.3z"/>
	</g>
</g>
</svg>
