<?xml version="1.0" encoding="utf-8"?>
<!-- Generator: Adobe Illustrator 25.2.1, SVG Export Plug-In . SVG Version: 6.00 Build 0)  -->
<svg version="1.1" id="Layer_1" xmlns="http://www.w3.org/2000/svg" xmlns:xlink="http://www.w3.org/1999/xlink" x="0px" y="0px"
	 viewBox="0 0 100 100" style="enable-background:new 0 0 100 100;" xml:space="preserve">
<style type="text/css">
	.st0{fill:#010101;}
</style>
<g>
	<path class="st0" d="M34.6,76.3v-5.1h32.2v5.1H34.6z M55.5,34.2h-8.3v-5.1h8.3v-2.9h7.7v2.9h3.1v5.1h-3.1v32.1h-7.1v-4.3
		C53.7,65.4,50.7,67,47,67c-3.5,0-6.3-1.3-8.6-4c-2.4-2.8-3.6-6.6-3.6-11.2c0-4.8,1.2-8.5,3.5-11.2c2.2-2.6,5.1-3.8,8.8-3.8
		c3.3,0,6.1,1.3,8.5,4V34.2z M42.7,51.2c0,3.1,0.4,5.4,1.3,6.7c1.2,2,3,3,5.2,3c1.9,0,3.4-0.8,4.5-2.3c1.2-1.6,1.8-3.9,1.8-6.7
		c0-6.3-2.1-9.4-6.4-9.4c-1.9,0-3.4,0.7-4.6,2.2C43.3,46.3,42.7,48.4,42.7,51.2z"/>
</g>
</svg>
