<?xml version="1.0" encoding="utf-8"?>
<!-- Generator: Adobe Illustrator 25.2.1, SVG Export Plug-In . SVG Version: 6.00 Build 0)  -->
<svg version="1.1" id="Layer_1" xmlns="http://www.w3.org/2000/svg" xmlns:xlink="http://www.w3.org/1999/xlink" x="0px" y="0px"
	 viewBox="0 0 100 100" style="enable-background:new 0 0 100 100;" xml:space="preserve">
<style type="text/css">
	.st0{fill:#010101;}
</style>
<g>
	<path class="st0" d="M-13.3,75V25H21v8.5H-3.2v11.8h20.9v8.5H-3.2V75H-13.3z"/>
	<path class="st0" d="M53.6,56.4l9.5,3c-1.5,5.3-3.9,9.2-7.2,11.8C52.5,73.7,48.2,75,43,75c-6.4,0-11.7-2.2-15.8-6.6
		C23.1,64,21,58,21,50.4c0-8,2.1-14.3,6.2-18.7c4.2-4.5,9.6-6.7,16.4-6.7c5.9,0,10.7,1.7,14.4,5.2c2.2,2.1,3.8,5,4.9,8.9l-9.7,2.3
		c-0.6-2.5-1.8-4.5-3.6-5.9c-1.8-1.5-4-2.2-6.6-2.2c-3.6,0-6.5,1.3-8.7,3.9c-2.2,2.6-3.3,6.7-3.3,12.5c0,6.1,1.1,10.5,3.3,13.1
		c2.2,2.6,5.1,3.9,8.6,3.9c2.6,0,4.8-0.8,6.7-2.5C51.5,62.5,52.8,59.9,53.6,56.4z"/>
	<path class="st0" d="M113.3,75h-11l-4.4-11.4h-20L73.8,75H63.1l19.5-50h10.7L113.3,75z M94.7,55.2l-6.9-18.6l-6.8,18.6H94.7z"/>
</g>
</svg>
